<?xml version="1.0" encoding="UTF-8" standalone="no"?>
<!-- Created with Inkscape (http://www.inkscape.org/) -->

<svg
   width="264.2168mm"
   height="124.10251mm"
   viewBox="0 0 264.2168 124.10251"
   version="1.1"
   id="svg418"
   inkscape:version="1.2.2 (732a01da63, 2022-12-09)"
   xmlns:inkscape="http://www.inkscape.org/namespaces/inkscape"
   xmlns:sodipodi="http://sodipodi.sourceforge.net/DTD/sodipodi-0.dtd"
   xmlns="http://www.w3.org/2000/svg"
   xmlns:svg="http://www.w3.org/2000/svg">
  <sodipodi:namedview
     id="namedview420"
     pagecolor="#ffffff"
     bordercolor="#000000"
     borderopacity="0.25"
     inkscape:showpageshadow="2"
     inkscape:pageopacity="0.0"
     inkscape:pagecheckerboard="0"
     inkscape:deskcolor="#d1d1d1"
     inkscape:document-units="mm"
     showgrid="false"
     inkscape:zoom="1.829812"
     inkscape:cx="793.79739"
     inkscape:cy="221.33421"
     inkscape:window-width="3440"
     inkscape:window-height="1351"
     inkscape:window-x="2391"
     inkscape:window-y="-9"
     inkscape:window-maximized="1"
     inkscape:current-layer="layer1" />
  <defs
     id="defs415" />
  <g
     inkscape:label="Layer 1"
     inkscape:groupmode="layer"
     id="layer1"
     transform="translate(36.964292,-63.457985)">
    <path
       id="path171"
       style="fill:#000000;stroke:none;stroke-width:0.264583"
       d="m 99.126626,158.46359 0.01347,10e-4 c -0.0044,0.003 -0.0086,0.007 -0.01137,0.009 0.0014,-0.002 0.002,-0.003 0.0041,-0.005 -0.0026,-0.002 -0.0041,-0.004 -0.0062,-0.005 z m 38.003364,-5.51956 c 1.65052,0.0257 3.34032,0.22789 4.58525,0.22789 h 9.525 14.55208 c 0.20479,1.93722 0.0728,7.45451 -1.45882,8.83615 -1.35039,1.21809 -5.78708,0.42427 -7.53701,0.42427 h -18.25625 c -1.81365,0 -5.51601,0.7055 -7.08174,-0.27182 -1.41156,-0.88078 0.0236,-7.54417 1.32137,-8.38554 1.08831,-0.70576 2.69963,-0.85665 4.35012,-0.83095 z m 36.42568,-0.0605 h 3e-5 c 1.99736,0.0238 4.0854,0.28836 5.20124,0.28836 h 9.525 c 4.55283,0 9.541,-0.56749 14.02291,0.26458 0,2.06765 0.2866,7.06889 -1.43763,8.53488 -1.46283,1.2438 -5.71964,0.46096 -7.5582,0.46096 h -18.52083 c -1.65439,0 -5.37891,0.69677 -6.7629,-0.27182 -1.18722,-0.83051 -0.1799,-3.38633 0.0532,-4.49068 0.23468,-1.11252 0.0933,-2.6992 0.82062,-3.63027 0.75233,-0.96293 2.65922,-1.17981 4.65656,-1.15601 z m -72.85085,-7.64914 -2.645829,15.34583 c 6.040299,-2.87357 6.287889,-9.52461 7.143749,-15.34583 z m -30.25293,-6.04046 9e-6,0 c 1.4306,-0.0379 2.80219,0.0682 3.2582,0.64389 0.892174,1.12655 -0.106789,3.38315 -0.290939,4.60282 -0.663838,4.40205 -1.258785,8.87186 -2.178161,13.22917 -0.283104,1.34035 -0.333919,4.26521 -1.785421,4.8674 -0.947985,0.39312 -2.258873,0.13525 -3.258716,0.10645 -1.178139,-0.0341 -3.516538,0.291 -4.490682,-0.48317 -0.911497,-0.72415 -0.259378,-2.53516 -0.05168,-3.43235 0.511917,-2.2137 0.903155,-4.62155 1.174088,-6.87917 0.08764,-0.72999 0.431187,-1.89143 0.02325,-2.5616 -0.80645,-1.32419 -5.220917,-0.6134 -6.597014,-0.6134 -1.229716,0 -3.034189,-0.32927 -4.183207,0.15968 -2.161892,0.92017 -2.106976,6.81534 -2.476335,8.83616 -0.436032,2.38647 -0.512366,5.83492 -1.769401,7.9375 -1.79169,2.99713 -5.870267,5.31585 -8.50439,7.56026 -1.295597,1.10356 -3.941499,4.30499 -5.810498,3.98167 -1.406473,-0.24314 -4.932631,-4.41567 -4.343404,-5.88647 0.430212,-1.07441 2.093673,-1.96455 2.965193,-2.66702 2.202589,-1.77501 5.072792,-3.78729 6.63112,-6.16344 1.286668,-1.96183 1.313574,-4.38369 1.701188,-6.61459 0.564356,-3.24769 1.35564,-6.51357 1.723409,-9.78958 0.180711,-1.61073 0.357152,-5.49166 1.911512,-6.34277 1.609672,-0.88159 4.795231,-0.27181 6.598563,-0.27181 h 16.139584 c 0.693075,0 2.183066,-0.18173 3.613732,-0.21963 z m 5.911268,-1.89704 h 2.38125 c -0.555873,7.04226 -1.788388,15.22034 -4.497917,21.69583 h -0.264583 c 0.566471,-7.17796 3.854712,-14.51895 2.38125,-21.69583 z m 72.794002,-2.58124 v -8e-5 c -1.12291,0.005 -2.21579,0.0893 -3.20445,0.3452 -1.67956,0.43469 -2.43651,3.5983 -0.51728,4.20129 2.86139,0.89927 9.34105,0.73527 12.15481,-0.27543 1.2597,-0.4527 3.65584,-3.31905 1.2945,-3.98684 -1.25516,-0.355 -2.90687,-0.0842 -4.20492,-0.0842 -1.3567,0 -2.87949,-0.13394 -4.39249,-0.18294 -0.37825,-0.012 -0.75586,-0.019 -1.13017,-0.017 z m 42.61601,-0.17001 v 2.2e-4 c -0.48621,-0.01 -0.98167,-0.006 -1.47847,0.007 -1.98717,0.0535 -3.98992,0.26571 -5.45238,0.43822 -0.8834,0.10425 -2.31314,-0.0309 -3.07061,0.46095 -1.21441,0.7884 -1.23635,3.12246 0.17622,3.65766 3.08522,1.16895 9.2408,0.66752 12.41939,-0.0651 1.53271,-0.35348 3.68775,-3.1846 1.28778,-3.97702 -1.05099,-0.3471 -2.42331,-0.49313 -3.88193,-0.52193 z m 11.77706,-8.86458 2.3e-4,-3e-5 c 1.54851,-0.0443 3.03362,0.0618 3.50986,0.66301 0.62386,0.78841 0.21629,2.41053 0.007,3.2799 -0.5413,2.24783 -0.96921,4.58979 -1.28829,6.87917 -0.39553,2.83864 -0.93519,5.66559 -1.52652,8.46667 -0.21432,1.01571 -0.12209,2.48598 -0.99994,3.20962 -1.88645,1.55494 -6.90938,0.33849 -9.14983,0.24029 -7.99232,-0.34991 -16.07656,-0.0103 -24.07708,-0.0103 0,-5.34524 1.29452,-11.20815 2.52956,-16.40417 0.36618,-1.53983 0.18489,-4.44843 1.37097,-5.62446 1.17685,-1.16732 5.12154,-0.46095 6.6828,-0.46095 h 19.05 c 0.73037,0 2.34269,-0.19445 3.89124,-0.23875 z m -35.76526,-0.0579 0,3e-5 c 1.11173,0.0155 2.0902,0.15619 2.61069,0.56844 1.13981,0.90271 -0.0242,3.85282 -0.17983,5.01985 -0.57226,4.29887 -1.41924,8.72185 -2.33733,12.96459 -0.27543,1.27262 -0.14719,3.47755 -1.58543,4.07365 -1.93644,0.80217 -5.29344,0.15968 -7.37991,0.15968 h -17.4625 c -1.76788,0 -6.32963,0.87695 -7.74113,-0.27182 -1.02763,-0.83634 0.10889,-3.88507 0.25838,-5.01985 0.5625,-4.26364 1.71273,-8.444 2.34456,-12.7 0.19367,-1.30461 0.0578,-3.66919 1.48415,-4.30154 1.90493,-0.84453 5.29082,-0.19637 7.3582,-0.19637 h 17.4625 c 0.87298,0 2.47082,-0.20656 4.02353,-0.27596 0.38818,-0.0177 0.77354,-0.0257 1.14412,-0.0207 z m -141.203787,-3.13107 0,-3e-5 c 1.492249,0.0123 2.974207,0.21581 3.661792,0.632 1.02817,0.62198 0.851848,2.0881 2.210201,2.44688 2.129034,0.56231 4.932666,0.0697 7.131865,0.0853 0.77994,0.006 2.152932,-0.18282 2.755387,0.42994 0.945356,0.96171 -0.260454,5.44943 -0.60203,6.71277 -1.497789,5.54289 -10.111452,-0.78046 -12.675196,3.45405 -0.949059,1.56708 -0.847696,3.54079 -1.213879,5.2772 -1.054628,4.99837 -1.703836,10.07706 -2.759522,15.08125 -0.403489,1.9126 -0.313949,4.04263 -1.218013,5.82084 -1.461772,2.87436 -5.612786,5.45427 -8.098214,7.46001 -1.56018,1.25941 -3.619858,3.72716 -5.555216,4.2788 -1.7999065,0.51302 -5.843066,-4.21311 -5.0157148,-5.89421 2.060759,-4.18827 8.5329718,-5.34461 10.1936928,-10.00249 1.594114,-4.47026 1.609771,-9.71832 2.589506,-14.36295 0.436563,-2.06898 1.731234,-5.84426 1.265039,-7.89926 -0.416983,-1.83852 -4.240288,-0.205 -5.321639,-1.55752 -0.812799,-1.01621 0.565764,-7.53658 1.663981,-8.26307 1.31101,-0.86757 3.271538,0.19535 4.666899,-0.54363 1.138485,-0.60297 1.428934,-2.07927 2.596224,-2.63912 0.729704,-0.3499 2.232539,-0.52906 3.724837,-0.51676 z m 2.816366,-2.51975 2e-6,-2.4e-4 c -1.165671,-0.008 -2.368824,0.12661 -3.305225,0.12661 -0.746455,0 -1.661362,-0.097 -2.56005,-0.10697 v 5.2e-4 c -0.898672,-0.01 -1.781119,0.0683 -2.462899,0.41909 -0.949059,0.48842 -1.369059,1.6965 -2.412773,1.9849 -2.036216,0.56277 -3.956849,-0.25916 -5.500956,1.72754 -1.210137,1.55727 -1.267615,3.632 -1.543575,5.50044 -0.660928,4.47449 -0.905644,7.9375 4.69067,7.9375 -0.870677,4.67399 -1.569158,9.37406 -2.550232,14.02292 -0.413543,1.95943 -0.200982,4.33602 -1.349272,6.07508 -2.5814711,3.90855 -11.3283951,6.47 -10.0190264,12.18117 0.3082387,1.34406 1.4064645,2.42707 2.2768636,3.43958 1.2763487,1.48456 2.3964128,3.33696 4.4979167,3.64784 2.3973391,0.35507 3.8807121,-1.33183 5.5562501,-2.73834 3.49878,-2.9368 7.326775,-5.65327 10.555945,-8.89196 2.341493,-2.34839 2.598956,-6.61071 2.979146,-9.74462 0.72337,-5.96173 2.993165,-11.98684 3.133659,-17.99167 3.134449,0 7.730151,0.84401 10.583333,-0.52917 -2.855827,4.37719 -3.133611,11.25631 -3.964616,16.40417 -0.352953,2.1846 -0.219741,4.96787 -1.482597,6.87917 -2.520351,3.8152 -11.723834,7.16214 -9.990087,12.7 0.378618,1.20965 1.411676,2.19741 2.177644,3.175 0.841853,1.07418 1.763579,2.44001 2.951241,3.15174 4.28246,2.56587 9.543395,-4.32766 12.421465,-6.73292 2.055214,-1.71766 5.255828,-3.52799 6.498311,-5.94382 2.394939,-4.65627 1.515369,-10.72953 3.294889,-15.61042 h 6.35 c -1.130101,3.12202 -3.349553,11.30057 0.01085,13.45447 1.62712,1.04272 4.220698,0.56845 6.074565,0.56845 -2.684393,3.61861 -1.133018,5.90212 1.516186,8.99583 1.486693,1.73592 3.128642,3.44637 5.627564,2.76004 2.578824,-0.70798 4.86364,-3.6303 6.879167,-5.2834 2.783613,-2.28276 6.650069,-4.67073 8.511625,-7.79539 1.398305,-2.34705 1.347895,-5.57246 1.902726,-8.20208 1.194593,-5.65957 3.027809,-12.21754 3.079399,-17.99167 l 10.847912,-0.31678 3.70417,0.0522 c 0.22331,1.92133 -0.54616,4.19237 -0.92552,6.08541 -0.89138,4.4473 -0.48343,11.14464 -3.40806,14.81667 -2.44971,3.07598 -8.034976,5.15977 -9.325017,8.99583 -1.259945,3.74563 4.209672,10.43098 8.102347,9.69967 1.99094,-0.37411 3.56612,-2.1533 5.02708,-3.42408 2.94898,-2.5648 6.21437,-4.85633 8.9948,-7.60264 2.41716,-2.38727 2.70135,-5.00872 3.29799,-8.19795 0.75697,-4.04641 1.60264,-8.11274 2.23604,-12.17083 0.3339,-2.14015 0.36258,-5.14399 1.27693,-7.10448 0.81332,-1.74329 6.831,-0.83302 8.53591,-0.83302 -0.85401,4.5835 -2.718,9.09808 0,13.22917 -4.2316,0.85431 -6.06306,12.62822 -1.32292,14.1149 1.58644,0.49768 3.64338,0.1726 5.29167,0.1726 h 10.84792 c 6.37605,0 12.77134,-0.33938 19.05,-0.54416 0.97286,-0.0318 1.91272,0.51042 2.91041,0.54002 4.48936,0.13293 9.00231,0.004 13.49375,0.004 h 12.96459 c 1.9002,0 4.29345,0.3852 6.08541,-0.34055 4.72192,-1.91234 4.31031,-10.59398 2.64584,-14.21154 2.3193,-0.65643 2.71831,-3.20788 3.1104,-5.29166 0.99032,-5.26084 2.00202,-10.57765 2.78226,-15.875 0.31353,-2.12718 0.67776,-4.7583 -1.39836,-6.08645 -1.70545,-1.09113 -3.89082,-0.79272 -5.81722,-0.79272 h -11.64167 c -5.19759,0 -10.41493,-0.13199 -15.61041,0.004 -1.08449,0.0283 -2.12886,0.64643 -3.175,0.60513 -8.46591,-0.33258 -17.08144,-0.60927 -25.66459,-0.60927 -3.43653,0 -6.82689,0.28429 -10.20661,0.42478 -3.59744,0.14975 -5.47029,-0.75433 -8.04964,2.75022 1.65444,0.27993 4.2634,-0.67184 5.73712,0.31213 1.45091,0.96864 -0.0426,6.22406 -0.50539,7.6202 -0.51171,1.54246 -1.80514,1.28644 -3.11609,1.35444 -2.31901,0.11986 -7.7408,-1.12912 -9.25732,1.06712 -1.20756,1.74941 -1.16963,4.80072 -1.52549,6.84403 -0.66067,3.79564 -1.56251,7.57276 -2.17661,11.37708 -0.39449,2.44204 -0.38581,5.39308 -1.40095,7.67292 -1.25783,2.82569 -5.0379,4.99363 -7.33443,6.951 -1.49695,1.27576 -4.88799,5.24076 -6.87865,5.28546 -1.39462,0.0315 -4.974112,-4.26721 -4.455544,-5.61154 1.231368,-3.19102 6.580814,-5.25997 8.707994,-7.97161 3.47259,-4.42639 3.38704,-12.82906 4.29793,-18.23144 0.31962,-1.89514 1.44308,-4.65735 0.88883,-6.55516 -0.61118,-2.09252 -4.52021,0.34104 -5.30045,-1.68724 -0.9633,-2.50368 0.96672,-7.57254 3.26905,-8.42739 v -0.26458 c -1.05482,-0.87255 -1.87246,-2.04178 -3.175,-2.56987 -2.4841,-1.00722 -5.83306,-0.18014 -8.466662,-0.3545 -1.275753,-0.0844 -4.791669,-0.057 -4.008025,2.35696 0.342371,1.05408 1.832158,0.83172 2.685108,0.83199 2.01766,7.9e-4 9.105839,-1.1641 8.590169,2.11667 -0.26512,1.68538 -0.3171,5.65032 -1.74976,6.71949 -2.79816,2.08775 -9.362097,-1.67769 -11.64115,1.29191 -1.221513,1.59167 -1.048969,4.1452 -1.481563,6.01152 -1.456729,6.2882 -1.284237,13.52537 -3.499011,19.57916 -1.099542,3.00533 -4.820562,5.13351 -7.152018,7.14375 -1.659134,1.43058 -3.362591,2.80914 -5.027084,4.23334 -0.616727,0.52783 -1.476111,1.47684 -2.38125,1.34772 -1.39455,-0.1987 -5.070539,-4.3825 -4.272607,-5.77019 1.830105,-3.18233 6.387151,-4.76528 8.60826,-7.7494 3.509363,-4.71452 3.702096,-13.364 4.507735,-19.04897 0.212196,-1.49696 1.566047,-4.63091 0.673344,-6.00118 -0.767225,-1.17813 -3.058683,-0.41959 -4.220931,-0.69608 -1.120774,-0.2667 -2.000416,-1.00556 -3.179134,-1.24024 -0.680441,2.15417 -4.782875,1.32292 -6.614583,1.32292 H 50.698574 c -1.675539,0 -5.099299,0.64905 -6.529834,-0.31161 -1.354136,-0.90935 0.06977,-7.62056 1.329118,-8.41241 1.788317,-1.1242 6.286105,-0.27181 8.375716,-0.27181 3.74987,0 8.575546,0.79822 12.170834,-0.26459 -2.339643,-4.06758 -5.580133,-3.175 -9.789584,-3.175 H 33.500658 c -0.32212,-2.08636 -2.160324,-2.49476 -4.103109,-2.50786 z m -16.005225,-0.13797 -0.79375,0.79375 z m 0.529167,-0.52917 h 0.01189 c -0.004,0.003 -0.008,0.007 -0.01189,0.0103 z m 123.273609,-0.27388 0,3e-4 c -0.24929,0 -0.5078,0.009 -0.77153,0.009 0.44027,1.24802 1.5328,0.87845 2.64584,0.79375 -0.46275,-0.71395 -1.12643,-0.80281 -1.87431,-0.80305 z m 47.38264,-0.25528 0.26458,0.26458 z m -39.07927,-0.29921 c -1.00226,0.0112 -1.89887,0.34265 -2.19573,1.35754 l 5.02708,-0.26458 v -0.52917 c -0.72105,-0.26617 -1.82908,-0.57499 -2.83135,-0.56379 z m -97.974896,-0.49454 -2.116666,1.05833 v 1.05833 l 4.233333,-0.26458 z m 51.951868,-3.12384 c -0.0953,-0.005 -0.185781,0.007 -0.271301,0.0372 -1.120245,0.40106 -1.267032,3.81735 -0.311093,4.40335 1.239512,0.75988 3.311772,0.27449 4.722192,0.53537 -0.28499,-1.01571 -2.71031,-4.89852 -4.139798,-4.97592 z m 77.966818,-2.18488 6e-4,4.8e-4 0.008,0.008 c 4.4e-4,0.003 4.7e-4,0.005 0.001,0.008 v 5.2e-4 h -0.0176 z m 0.5209,-1.57045 -7.9375,6.44715 -3.96875,2.2841 h 21.96041 l -3.43958,-2.21692 z m -67.15559,-24.6047 c 1.02007,0.01783 1.93956,0.151827 2.51354,0.534851 1.27682,0.851932 0.42361,3.830045 0.12092,5.019849 -1.10225,4.33004 -1.27349,8.89648 -2.38125,13.22917 -0.28125,1.09906 -0.16253,3.50924 -1.17925,4.1863 -1.47426,0.98181 -8.07084,0.87523 -8.44703,-1.28106 -0.44238,-2.53543 0.97022,-5.92659 1.31258,-8.461494 0.14049,-1.04002 0.75195,-2.509491 -0.2341,-3.279903 -1.34647,-1.051707 -4.672801,-0.424263 -6.306072,-0.424263 -1.185001,-1e-6 -2.83672,-0.290109 -3.952731,0.15968 -1.236646,0.49847 -1.465507,2.390962 -1.667598,3.544486 l -1.866036,10.572994 c -0.802464,4.59489 -6.618378,7.84469 -9.976135,10.70529 -1.192145,1.01568 -2.660651,2.80659 -4.233334,3.18017 -1.968961,0.46804 -5.306358,-3.84908 -4.7656,-5.67252 0.979471,-3.30326 6.621754,-5.66371 8.8191,-8.24756 1.469428,-1.72741 1.436101,-3.66986 1.832446,-5.77587 0.72676,-3.86332 1.263841,-7.797089 2.119767,-11.64167 0.370896,-1.666305 0.0251,-5.297066 2.063957,-5.934005 2.005209,-0.626518 4.773789,-0.151412 6.863664,-0.151412 h 14.552082 c 0.90475,0 2.35323,-0.187323 3.7667,-0.247013 0.35338,-0.01492 0.70435,-0.02192 1.04438,-0.01602 z m 30.26327,-0.113688 c 0.8362,-0.002 1.64054,0.104266 2.07274,0.536401 0.85169,0.851774 0.34885,2.772988 0.19275,3.80907 -0.53313,3.533684 -1.3771,7.034869 -1.84536,10.583337 -0.24685,1.87212 -0.42341,6.97561 -2.43603,7.77782 -0.85037,0.33887 -1.99822,0.15968 -2.89595,0.15968 -1.25591,0 -3.69535,0.46636 -4.60282,-0.6134 -0.91122,-1.08447 -0.13054,-3.22069 0.18294,-4.41369 0.90088,-3.4276 1.18495,-7.099639 1.90324,-10.58333 0.39871,-1.933527 0.0404,-6.041362 2.26394,-6.94738 0.86676,-0.353153 1.98341,-0.19637 2.89853,-0.19637 0.56105,0 1.42973,-0.110138 2.26602,-0.112138 z m -26.07852,-1.739946 5.55625,0.264584 -2.79104,15.34583 -0.87023,4.49792 -3.48248,3.70417 h -0.26458 c 0.0156,-5.4524 1.81698,-11.280918 2.69751,-16.668754 0.39921,-2.442041 1.38469,-4.748578 -0.84543,-6.614583 z m 26.72292,-10.054166 -0.26458,2.910416 h 2.91041 l 0.26459,-2.645833 z m -52.508939,-1.557011 0,-10e-7 c 0.322639,-0.0066 0.654319,-0.0015 0.987537,0.01137 1.332888,0.05158 2.694071,0.222725 3.63182,0.222725 h 15.345832 c 1.79282,0 4.90451,-0.602542 6.54069,0.15968 1.59775,0.744227 0.18403,7.732504 -1.07539,8.524545 -1.59378,1.0024 -5.21156,0.311608 -7.0528,0.311608 H 92.238158 c -1.803862,0 -4.89794,0.595401 -6.540686,-0.19637 -1.726603,-0.831957 -0.411649,-7.688386 1.034562,-8.527645 0.618082,-0.358704 1.506352,-0.486172 2.474267,-0.505912 z m 66.044029,-0.351917 0,1e-5 c 1.38139,-0.02489 2.72276,0.08853 3.23908,0.555522 1.14113,1.03235 0.10639,3.578156 -0.12247,4.792989 -0.8554,4.545821 -1.19564,9.275297 -2.32751,13.758333 -0.54631,2.163971 -2.48377,7.683986 0.75809,8.358664 3.32758,0.69242 6.01355,-1.81086 8.20105,-3.836976 3.87553,-3.589531 8.41605,-6.616748 7.55458,-12.722221 -0.33919,-2.405079 -3.20767,-0.998324 -4.55993,-1.900659 -1.16519,-0.777595 -0.4466,-3.310181 -0.29817,-4.450374 0.73817,-5.666673 5.69967,-4.23385 10.26811,-4.23385 1.31178,0 4.10373,-0.524828 5.13663,0.424263 0.89135,0.819177 0.26117,2.264616 0.14212,3.279903 -0.37596,3.200368 -1.26458,6.338548 -1.726,9.525 -0.31379,2.167729 -0.31822,4.288421 -1.21749,6.35 -2.08144,4.770567 -7.2238,7.562094 -11.06651,10.782804 -2.15683,1.80757 -4.43635,4.68159 -7.14375,5.6534 -1.74382,0.62595 -3.75102,0.16398 -5.55625,0.24288 -3.50481,0.15343 -7.36637,0.77693 -10.84637,0.0496 -3.0802,-0.64368 -0.91239,-5.91921 -0.60203,-7.99744 1.08109,-7.240921 2.26756,-14.628064 3.8685,-21.771284 0.45693,-2.03949 0.0613,-6.238085 2.81843,-6.587195 0.67667,-0.08569 2.09857,-0.248479 3.47989,-0.273369 z m -98.219326,-2.59674 0,1.9e-5 c 1.315013,-0.01369 2.643693,0.08898 3.432349,0.234611 1.403348,0.259178 1.323066,1.994588 2.441195,2.636564 1.281838,0.735786 3.56035,0.311609 4.991943,0.311609 h 10.847917 c 1.073413,0 2.992425,-0.365491 3.737756,0.613399 1.256439,1.649663 -0.329701,8.201018 -2.415873,8.586556 -4.373757,0.808306 -9.570075,0.06046 -14.021883,0.06046 -1.830321,0 -4.396757,-0.503362 -5.706112,1.087272 -1.697036,2.061049 -1.538689,6.908239 -2.011764,9.496061 -0.301889,1.652279 -1.570462,4.728438 -0.917256,6.338631 0.552963,1.362886 2.119834,1.332286 3.343465,1.334286 2.536227,0.004 8.084824,1.18737 8.76639,-2.116667 0.993972,-4.819252 -8.264154,-0.09951 -8.449097,-4.237467 -0.06535,-1.467079 0.438747,-6.259388 1.686719,-7.132381 0.754326,-0.527725 2.152924,-0.271819 3.023071,-0.271819 h 7.14375 c 1.503362,0 6.216031,-0.766315 7.136516,0.6134 1.306196,1.957629 -0.702669,7.772105 -1.116211,9.969934 -0.513028,2.72699 -1.009394,5.46026 -1.410767,8.20208 -0.170391,1.16336 -0.296243,2.728 -1.249536,3.55482 -1.619712,1.40435 -4.887973,0.5684 -6.799585,0.4377 -5.236231,-0.35892 -10.625804,-0.0487 -15.875,-0.0233 -1.850957,0.009 -5.120148,1.02017 -6.719487,-0.30851 -1.25624,-1.04404 0.128146,-4.4442 0.294039,-5.77742 0.653206,-5.24761 1.989886,-10.368633 2.68149,-15.61042 0.291306,-2.20837 1.381953,-4.731062 -1.547709,-5.55625 -0.344471,-1.942867 -0.06542,-6.512824 1.217497,-8.101314 0.616463,-0.76333 1.658045,-0.946206 2.352311,-1.604554 0.711464,-0.674853 0.819859,-1.848069 1.791622,-2.272212 0.735393,-0.320946 2.037175,-0.451398 3.35225,-0.465088 z m 73.463216,-0.0098 c 1.55853,-0.0029 3.10687,0.166276 3.74292,0.553972 0.96097,0.585587 1.02008,1.85831 2.2009,2.222603 2.16105,0.666787 5.14233,0.147612 7.39387,0.151412 0.91598,0.0015 2.29378,-0.161449 2.75125,0.854211 0.5887,1.307114 -0.21361,3.116529 -0.40411,4.437455 -0.1442,1.000997 -0.14497,2.267761 -0.76171,3.114539 -2.29969,3.157614 -10.55265,-1.745687 -12.284,2.189014 -0.92049,2.091926 -0.84359,4.894999 -1.25264,7.131864 -0.72521,3.967853 -1.64671,7.912756 -2.26343,11.906248 -0.33232,2.15073 -0.37633,5.2153 -1.47588,7.11998 -1.58881,2.7516 -5.44789,5.02887 -7.8574,7.059 -1.59907,1.34747 -3.5153,3.77161 -5.55625,4.39973 -2.05469,0.63209 -5.66414,-3.99336 -4.75371,-5.87871 2.0396,-4.22236 8.3233,-5.42225 9.88725,-10.05365 1.30592,-3.86813 1.23613,-8.202197 2.12958,-12.171348 0.60905,-2.705031 1.90934,-6.477783 1.50585,-9.256282 -0.39607,-2.727654 -3.98003,-0.562806 -5.05602,-2.424659 -0.83741,-1.448474 0.40545,-7.099273 1.8588,-7.890991 1.21252,-0.660649 2.71212,-0.01552 3.95222,-0.763261 0.94741,-0.571141 1.43825,-1.779307 2.43757,-2.222603 0.67728,-0.300493 2.24635,-0.475624 3.80494,-0.478524 z M -8.9019222,69.892219 c 1.2802117,0.0043 2.5331838,0.173459 3.2054891,0.661458 0.968586,0.703164 0.9430328,2.085352 2.1605916,2.554366 2.60079846,1.001791 6.9999965,0.15968 9.7844157,0.15968 1.4335106,0 5.4259848,-0.688121 6.3427658,0.643888 1.18581,1.723001 -0.370257,5.69481 -0.670244,7.558195 -1.095639,6.80525 -2.5610098,13.55876 -3.5894448,20.372914 -0.2706677,1.79492 -0.3086719,6.843 -1.9223633,7.89048 -1.5096585,0.97996 -8.1462235,0.93464 -8.3467773,-1.28726 -0.2111378,-2.337 0.7294768,-5.11209 1.21181231,-7.39697 0.64240736,-3.043958 0.84996624,-6.170447 1.48311361,-9.215455 C 1.21617,89.626152 2.1436738,86.900624 2.0658838,84.645323 c -0.088107,-2.561124 -6.3663505,-2.51387 -7.9530029,-1.391646 -2.3346547,1.651169 -1.9790332,7.293787 -2.5729696,9.857796 -1.003828,4.332952 -1.7182913,8.826097 -2.3776323,13.229167 -0.295804,1.97664 -0.423676,5.10458 -1.495,6.80372 -1.611178,2.55448 -5.061794,4.58949 -7.347871,6.53707 -1.577153,1.34377 -4.212884,4.60941 -6.35,4.81314 -1.982626,0.18891 -5.425665,-4.08487 -4.489649,-5.97896 1.961433,-3.96946 8.233966,-5.25514 9.830408,-9.52914 1.070186,-2.86483 1.040672,-6.2699 1.60352,-9.260414 0.916039,-4.86767 3.007024,-10.633911 2.759004,-15.605249 -0.09141,-1.832826 -2.411526,-1.42964 -2.270662,-3.709334 0.100965,-1.633866 0.375597,-4.750167 1.434538,-6.028572 0.632115,-0.763118 1.658323,-0.987753 2.319755,-1.716692 0.915484,-1.008855 1.073443,-2.116394 2.571936,-2.445845 0.782213,-0.172001 2.089635,-0.332445 3.3698198,-0.328145 z m 33.3126952,-0.06408 0,1.59e-4 c 1.184621,-0.02283 2.346736,0.05189 2.94504,0.372587 1.350417,0.723616 0.943584,2.674468 2.709395,3.006534 3.4646,0.651545 7.581342,0.06046 11.108366,0.06046 1.245392,0 3.335496,-0.390144 4.414201,0.348816 1.49377,1.023354 0.09422,7.426208 -1.106392,8.450647 -0.922601,0.787115 -2.713821,0.460954 -3.836975,0.460954 h -9.525 c -1.992509,1.32e-4 -4.500977,0.0038 -4.690153,2.644799 -0.186531,2.605072 4.153381,1.853117 5.748486,1.853117 h 7.9375 c 0.896672,0 2.305737,-0.252413 3.091284,0.271818 1.440589,0.961336 0.06398,6.109787 -0.560172,7.395931 -0.877623,1.808893 -3.249722,1.328085 -4.912362,1.328085 -3.507446,0 -11.696197,-1.606756 -13.550594,2.117183 -1.118657,2.246241 1.655788,2.602581 3.231844,2.641181 3.170962,0.078 6.352996,0.004 9.525,0.004 1.029493,0 2.956352,-0.36476 3.831807,0.27182 1.685643,1.22497 -0.220023,8.12202 -1.980757,8.70489 -1.681691,0.55706 -4.297654,0.0191 -6.084383,0.0191 H 18.948574 c -1.388465,0 -5.177582,0.67502 -5.889046,-0.85421 -0.81518,-1.75312 0.596541,-5.52707 1.007174,-7.34787 1.168398,-5.183057 2.672485,-11.371401 2.847888,-16.668751 0.05477,-1.66014 -1.407713,-1.729382 -1.959054,-2.982764 -0.606689,-1.379365 0.162632,-4.263466 0.466638,-5.703528 0.445822,-2.111293 1.837691,-2.136586 3.093352,-3.556889 0.995875,-1.126484 1.04793,-2.446309 2.814815,-2.625162 0.688644,-0.06972 1.895843,-0.190077 3.080432,-0.212907 z m 171.050537,-0.422197 0,2e-6 c 1.10243,-0.01187 2.17427,0.124418 2.76056,0.618567 1.17049,0.986261 0.89162,2.577001 2.76004,2.918168 3.39744,0.620405 7.39284,0.06046 10.84791,0.06046 1.20412,0 3.34444,-0.402812 4.3832,0.312125 1.407,0.968299 0.0685,7.308998 -1.01751,8.334892 -0.97234,0.91885 -2.66877,0.613399 -3.89485,0.613399 h -9.525 c -1.84065,0 -4.49664,0.174078 -4.71703,2.6448 -0.20849,2.336607 4.67157,1.588534 6.03994,1.588534 h 7.67292 c 0.94932,5.3e-5 2.27843,-0.205803 3.06028,0.460954 1.34218,1.144321 0.0445,6.044756 -0.56327,7.472412 -0.83257,1.954944 -3.14553,1.591634 -4.87826,1.591634 -3.32201,-10e-7 -11.87002,-1.565224 -13.60537,1.8526 -1.21865,2.400031 1.77298,2.380731 3.28662,2.380731 h 9.525 c 1.12314,0 2.89601,-0.269912 3.80959,0.55294 1.71418,1.54352 -0.25787,8.17478 -2.22312,8.79946 -1.87082,0.59504 -4.39903,0.1726 -6.34897,0.1726 h -12.96458 c -1.3533,0 -5.20245,0.362 -6.03374,-0.90847 -0.57361,-0.8763 -0.0326,-2.62134 0.10077,-3.58944 0.41431,-3.00745 0.91433,-6.037869 1.58026,-8.995838 0.81279,-3.610929 1.90964,-7.944396 1.95544,-11.641667 0.0236,-1.91273 -2.06816,-2.055165 -2.26395,-3.708817 -0.18785,-1.58603 0.5676,-5.736616 1.64125,-6.957715 0.57148,-0.649907 1.44878,-0.811899 2.06499,-1.387512 1.49511,-1.396302 1.3027,-2.596847 3.60081,-2.914551 0.71013,-0.09819 1.84365,-0.258398 2.94607,-0.270268 z m -13.00024,24.49928 v -1.058333 h 0.52917 l -0.26458,1.058333 z M 194.10791,66.46297 v 3.1e-5 c -1.92598,-0.04476 -3.80835,0.321095 -5.0307,1.04438 -1.40913,0.833733 -1.94891,3.34524 -3.70675,3.482475 -0.98767,0.07712 -1.90664,-0.769147 -2.90939,-0.869198 -3.45932,-0.344979 -7.10626,-0.02791 -10.58333,-0.02791 -1.78536,0 -3.58283,-0.158263 -5.01261,1.117761 -1.53983,1.374265 -1.5961,3.096174 -1.97921,4.967656 -0.876,4.281931 -0.91721,8.451426 4.61057,8.466666 -0.89293,4.809208 -2.73942,6.088397 -6.34587,9.260934 -1.88906,1.661521 -3.17655,3.222373 -5.82496,3.439066 0.95778,-1.792755 1.05195,-4.447917 1.35754,-6.462137 0.61356,-4.040612 1.52056,-8.020147 2.07274,-12.058696 0.29134,-2.128862 1.30132,-4.226363 0.38034,-6.349483 -1.94252,-4.478195 -10.06572,-2.851939 -13.33562,-1.05885 -2.04305,-3.249502 -7.72517,0.06725 -10.51461,-1.594735 -1.24459,-0.741501 -1.70438,-1.984888 -3.24373,-2.429826 -2.36714,-0.684246 -6.48139,-0.566384 -8.72711,0.460437 -1.12898,0.516136 -1.62764,1.670399 -2.67426,2.233972 -0.93636,0.503993 -3.66082,0.866983 -4.73821,0.948263 -1.1633,0.08776 -2.45111,-0.669828 -3.70417,-0.675928 -5.64394,-0.02767 -11.28938,-5.17e-4 -16.933329,-5.17e-4 -3.426484,0 -10.449523,-1.345126 -12.964583,1.322917 h -0.264584 c -2.51506,-2.668043 -9.538035,-1.322917 -12.964583,-1.322917 -1.847782,0 -4.850411,0.575261 -6.558773,-0.15968 -1.107794,-0.476475 -1.569935,-1.903266 -2.705261,-2.486153 -2.290695,-1.176201 -6.898621,-0.854483 -9.256799,0.02481 -2.085907,0.777775 -3.073932,3.042513 -5.027084,4.208528 -1.955997,-2.954632 -9.306259,-1.5875 -12.435416,-1.5875 -1.16357,0 -3.108667,0.367161 -4.133082,-0.271818 -1.117598,-0.696868 -1.419243,-2.091728 -2.747119,-2.636014 -1.987532,-0.814605 -7.675138,-0.842564 -9.523449,0.264583 -1.489074,0.891888 -2.85352,2.899189 -3.969267,4.230749 h -0.264583 c -1.391905,-1.66361 -3.279301,-1.5875 -5.2916671,-1.5875 -3.4288636,0 -6.8928087,0.143996 -10.3182333,-0.0052 -1.8840961,-0.08204 -2.3595443,-1.965763 -3.9692667,-2.692342 -2.020039,-0.911864 -5.5208509,-0.742659 -7.6729169,-0.354501 -2.305656,0.415863 -2.904688,1.642086 -4.364074,3.216342 -0.789491,0.851672 -1.907372,1.259815 -2.60656,2.227771 -1.259706,1.743955 -2.193205,6.60167 -1.964738,8.720397 0.192908,1.78888 2.147617,2.88152 2.206067,4.502051 0.08514,2.361953 -0.956454,5.136756 -1.405082,7.449158 -0.864657,4.457042 -0.992904,9.380168 -2.373499,13.713378 -1.60078,5.0243 -9.495219,6.2025 -10.532173,11.64167 -0.728291,3.81996 5.129053,9.46627 8.869226,8.13335 4.028462,-1.43587 8.200816,-6.35892 11.377083,-9.17825 1.251028,-1.11041 2.856721,-2.14964 3.563607,-3.72174 1.5610404,-3.47179 1.7936981,-8.1639 2.4768514,-11.90211 0.7207243,-3.943228 1.4783049,-7.944223 2.0494873,-11.906257 0.1600728,-1.111115 0.2366868,-3.775606 1.1425659,-4.527372 0.6672783,-0.554021 2.3422701,-0.294797 3.2029053,-0.499711 -0.1198559,5.808511 -1.985347,11.975448 -2.914034,17.72709 -0.3606267,2.2338 -1.3798548,4.87352 -0.6040975,7.13961 1.2485147,3.64663 10.1649173,3.71177 12.7289388,1.64486 1.3708046,-1.10484 1.2651087,-2.72817 1.6371093,-4.28656 h 0.2645834 c 0.00556,1.97452 0.3339101,3.90369 2.3817671,4.76147 2.12242,0.88868 4.900957,0.5302 7.143233,0.5302 h 14.022917 c 2.321136,0 5.38675,0.43914 7.362341,-1.05627 2.451346,-1.8552 4.61316,-10.90953 1.368909,-12.702067 v -0.529166 c 4.44387,-2.132477 4.639946,-10.006902 2.645833,-13.758334 3.582918,-0.896148 1.79929,4.122654 1.516186,6.085417 -0.616462,4.273968 -1.267252,8.757044 -2.24224,12.96459 -0.460889,1.98933 -1.351526,5.05384 -0.128674,6.87813 1.610237,2.40209 4.403388,2.1177 6.940145,2.1177 6.376583,0 14.172875,1.21151 20.372916,-0.26458 -1.40434,1.7404 -3.807759,2.79327 -4.558895,5.02708 -1.240315,3.68689 3.613411,9.90905 7.469312,9.47487 2.036975,-0.22938 3.534628,-1.81976 5.003312,-3.09955 3.374956,-2.94073 8.542414,-5.94652 10.869621,-9.8149 1.800702,-2.99343 1.906497,-7.96139 2.374015,-11.37709 0.179916,-1.31546 0.353981,-3.752758 1.866553,-4.149101 0.663558,-0.17383 1.432116,-0.08423 2.111499,-0.08423 0.851692,-10e-7 2.358207,-0.267881 3.010669,0.424263 0.64135,0.680719 -0.0011,1.959368 -0.109554,2.750738 -0.313796,2.2944 -1.445853,5.10466 -0.907955,7.40833 0.950581,4.07133 6.407449,3.94677 9.648509,3.175 -0.68864,1.59913 -1.4476,2.64853 -1.29811,4.49792 0.2532,3.13233 4.48383,8.00879 7.91269,7.30395 1.75049,-0.35983 3.1756,-1.86066 4.49792,-2.96106 3.31515,-2.75901 8.84879,-6.05589 10.84791,-9.89914 2.94183,2.11608 9.07213,0.91254 11.90625,-0.79375 1.61793,3.03445 7.96193,1.85208 10.84792,1.85208 3.12149,0 6.80545,0.49258 9.78958,-0.59428 4.43353,-1.61474 8.23818,-6.4876 11.90625,-9.38392 2.75107,-2.17191 6.80406,-4.612852 7.67292,-8.278048 h 0.26458 c -0.0315,3.809128 -1.16715,7.614568 -1.66191,11.377088 -0.22726,1.72877 -0.54316,3.77698 0.5519,5.28029 1.58694,2.17825 4.56977,1.59887 6.93085,1.59887 h 15.61041 c 2.0317,0 5.0372,0.55234 6.87917,-0.41599 3.9573,-2.07961 4.69523,-10.60107 1.85208,-13.606925 4.59099,-1.560981 4.92491,-10.279231 2.91042,-13.758333 3.30008,-1.716918 5.542,-10.988413 2.06809,-13.455509 -1.35888,-0.965043 -3.13541,-0.831991 -4.71392,-0.831991 -3.59504,0 -8.1937,-0.75462 -11.64167,0.264583 -0.5976,-2.604244 -3.92865,-3.819745 -7.13858,-3.894335 z m 0.97358,-3.004468 0,7e-6 c 1.69387,-0.01167 3.37025,0.126245 4.5775,0.577742 1.60467,0.60007 2.64075,2.395342 4.23747,2.797762 4.39037,1.10667 9.37575,-0.948619 13.7542,0.506946 2.24335,0.745788 4.09475,2.84323 5.82083,4.385262 1.34963,1.205672 2.61749,2.473994 3.27577,4.187341 1.74359,4.539126 -1.534,9.18184 -2.15387,13.49375 -0.45032,3.132584 -0.26051,6.322292 -0.95292,9.525 -0.31374,1.451758 -1.45408,2.807298 -1.60093,4.233338 -0.68362,6.64116 0.0556,16.35497 -9.41597,16.40417 -1.25934,0.007 -2.47386,0.0283 -3.70416,-0.26459 l -0.26459,0.79375 c 3.76945,0.20399 8.39872,6.47923 8.93951,10.05417 0.42598,2.81562 -0.59314,5.99315 -1.17099,8.73125 -0.94058,4.45761 -1.34639,9.03961 -2.30787,13.49375 -0.30263,1.40281 -1.18293,2.61043 -1.48931,3.96875 -0.9787,4.33855 0.42117,9.1979 -2.28307,13.20488 -1.82503,2.70397 -4.82656,2.9347 -7.77368,2.9347 h -12.7 -42.33334 c -3.97628,0 -10.04576,1.13957 -13.75833,-0.32091 -3.02569,-1.19005 -5.22658,-4.82663 -6.61458,-7.61659 h -0.26459 c -0.0479,5.78445 -4.49111,8.64367 -8.46666,12.09642 -2.95822,2.5693 -6.4493,6.7481 -10.31875,7.76749 -5.16242,1.35993 -7.86128,-3.17541 -10.586953,-6.63577 -1.280516,-1.62585 -2.950456,-3.35396 -3.700549,-5.29064 -5.320369,3.07492 -9.192557,9.8262 -15.08125,11.82667 -6.88981,2.34043 -12.078865,-7.42778 -15.575794,-11.81633 -1.576848,-1.97901 -2.977849,-3.62647 -3.73879,-6.09575 h -0.264583 c -0.969102,7.9537 -6.849407,11.19757 -12.435417,16.1835 -3.118824,2.78361 -6.566764,6.21268 -11.1125,4.53048 -3.058499,-1.13157 -4.879878,-4.43873 -6.709668,-6.95565 -0.605895,-0.83312 -1.486574,-2.80252 -2.595707,-3.01842 -1.571027,-0.30584 -4.854862,3.59516 -6.040458,4.55373 -3.453736,2.7926 -5.338304,2.82794 -9.525,2.43344 -2.5785715,-2.69259 -4.7672743,-5.52193 -7.0915569,-8.46667 -1.5470175,-1.95999 -3.33607841,-3.99474 -3.46387128,-6.61458 -0.35216065,-7.21473 8.93930278,-8.09163 10.88047318,-13.75833 0.970705,-2.83415 1.198658,-6.29053 1.638659,-9.26042 0.168805,-1.13818 0.707116,-2.56992 0.489893,-3.70417 -0.490008,-2.55872 -2.673642,-3.60739 -3.6829794,-5.82083 -1.4229016,-3.11963 -0.1727485,-8.49822 0.8583454,-11.64167 1.104055,-3.36648 4.437485,-3.37642 5.927287,-5.82083 l -1.852083,-0.79375 h -0.264584 c -3.509826,3.54401 -12.6469006,1.85016 -16.1395831,-0.79375 -0.6066884,4.03321 -4.7951266,6.49721 -7.6729167,8.96121 -3.1321872,2.68175 -6.7192832,6.82155 -10.8479162,7.81399 -3.873867,0.93102 -6.18185,-1.72764 -8.741586,-4.01939 -2.6081,-2.33517 -5.557015,-4.3903 -7.083288,-7.72873 -1.54379,-3.3768 -0.249603,-7.08775 2.341459,-9.48004 2.165877,-1.99993 5.888357,-3.83173 7.350972,-6.43992 1.043516,-1.86048 1.035437,-5.0023 1.374077,-7.098791 0.640635,-3.966242 2.291861,-8.418088 2.230871,-12.435417 -0.02016,-1.339365 -1.305929,-2.382581 -1.578715,-3.704166 -0.713659,-3.457486 0.159705,-9.216252 2.075843,-12.1698 0.785282,-1.210385 1.961861,-1.76871 2.927986,-2.768306 0.903974,-0.935305 1.404655,-2.06366 2.542997,-2.791561 2.955154,-1.88978 9.3693212,-2.100371 12.6989669,-1.058334 1.6189834,0.50669 2.658727,2.178858 4.23746743,2.565218 3.09001287,0.756295 7.13149907,0.082 10.31461567,0.0832 1.063095,4.22e-4 2.675472,0.568942 3.648873,0.31471 0.822853,-0.21497 1.489236,-1.351292 2.176095,-1.846399 1.430004,-1.030553 3.02409,-1.430529 4.758366,-1.598352 2.611104,-0.252691 6.277308,-0.50003 8.73125,0.543636 1.364984,0.58054 2.307764,2.140909 3.714501,2.50269 1.903131,0.489332 4.378112,0.08371 6.339665,0.08371 2.45581,0 4.95091,0.448595 7.332886,0.465605 1.446674,0.01032 3.32796,-2.378139 4.838464,-2.936772 2.604755,-0.963399 6.246101,-0.554781 8.995317,-0.428914 2.65132,0.121391 3.99393,2.608392 6.351033,2.871143 9.525256,1.061828 19.312237,0.02894 28.83855,0.02894 h 16.668746 c 1.77456,0 3.86272,0.545491 5.55625,0.374655 3.38395,-0.341384 5.55004,-3.122284 8.99584,-3.274736 2.5103,-0.111059 5.78227,-0.474527 8.20208,0.248564 1.57321,0.470113 2.693,1.924557 4.23333,2.303218 2.39284,0.588208 5.98997,0.477898 8.46667,0.567408 3.81205,0.137791 8.42178,-1.618582 12.17083,-0.02636 1.59488,0.677342 2.50089,1.834116 3.70417,2.982246 0.66542,-2.321316 3.60131,-3.380209 5.82083,-3.435449 4.61767,-0.114905 10.01755,0.882656 14.52883,0.131258 2.1415,-0.3567 3.59309,-2.989659 6.10867,-3.276285 1.27752,-0.145562 2.98908,-0.306657 4.68292,-0.318327 z" />
    <path
       style="fill:#ffffff;stroke-width:0.546504"
       d="M 35.522775,239.42233 C 25.39031,236.20944 15.229832,225.77232 12.531947,215.80554 c -0.836505,-3.09031 -0.88586,-4.06972 -0.336957,-6.68663 1.663899,-7.93269 6.733745,-13.75835 20.315921,-23.34463 4.655599,-3.28592 10.21554,-7.71056 12.355425,-9.83256 7.465701,-7.40326 8.88899,-12.48422 14.151496,-50.519 0.769378,-5.56068 2.490915,-14.65998 3.825638,-20.22066 2.903546,-12.096659 3.833511,-18.80296 3.024193,-21.808537 -0.311819,-1.157999 -2.148947,-4.471634 -4.082511,-7.363636 -2.508381,-3.751752 -3.623593,-5.978543 -3.892623,-7.772558 -1.070583,-7.139159 2.636669,-24.936518 6.604813,-31.707643 0.826101,-1.409634 3.095246,-3.670124 5.607433,-5.586037 2.320889,-1.770024 6.042676,-5.240813 8.270637,-7.712864 4.576,-5.077344 6.829396,-6.68976 11.049698,-7.906603 4.695854,-1.353959 14.61491,-2.00611 20.82291,-1.369049 7.81124,0.801585 10.67464,2.041447 15.66198,6.781708 2.2869,2.173607 4.77282,4.294766 5.52427,4.713687 1.09455,0.610198 6.63749,0.818578 27.87171,1.047799 29.42514,0.317643 28.28561,0.175259 33.15549,4.142778 1.25289,1.020743 2.40719,1.855897 2.56511,1.855897 0.15791,0 2.37602,-2.539769 4.92912,-5.643931 7.73827,-9.408478 11.08797,-11.743351 18.5431,-12.925285 5.44338,-0.862991 17.93266,-0.738717 22.98131,0.228674 5.26675,1.009182 6.88664,1.997777 10.4263,6.362984 4.70177,5.798369 4.43244,5.696315 14.96349,5.669874 5.01311,-0.01259 15.13994,-0.233645 22.50409,-0.491241 15.26092,-0.533823 19.0295,-0.150888 24.47059,2.486519 1.8866,0.914472 3.81766,2.254064 4.29127,2.976872 1.19343,1.821412 1.88625,1.370774 9.83218,-6.395296 4.71981,-4.612978 7.46863,-6.857139 9.56382,-7.807989 4.82939,-2.191696 11.35643,-3.288175 19.60866,-3.294065 11.52786,-0.0082 15.37855,1.305137 20.5685,7.01534 5.43146,5.975933 5.7763,6.091319 17.96005,6.009627 5.71097,-0.03829 16.90064,-0.484656 24.86594,-0.991921 20.09949,-1.280021 28.305,-0.334637 34.58245,3.984359 2.8608,1.968287 3.26688,2.050374 4.25473,0.860082 1.14776,-1.382953 5.66713,-3.450493 9.66019,-4.419379 4.3936,-1.066073 18.61499,-1.178218 30.19924,-0.238143 4.27916,0.347259 21.49461,0.599276 40.98956,0.600045 31.97116,0.0013 33.79829,0.05468 37.4338,1.094336 4.57391,1.308022 9.35686,1.385788 15.91366,0.258741 8.06274,-1.385904 9.76155,-2.156466 14.47766,-6.566909 4.56358,-4.267812 7.26812,-5.626147 13.65397,-6.857572 4.68223,-0.902913 17.42387,-0.902573 21.53522,5.74e-4 4.46067,0.979884 5.93607,1.821917 10.3633,5.914385 5.64266,5.215981 5.96876,5.340367 13.95614,5.323572 3.75721,-0.0079 10.07147,-0.229436 14.0316,-0.492303 8.62559,-0.572543 11.09174,-0.06061 14.60483,3.031746 l 2.39326,2.106624 3.59386,-1.629537 c 8.32452,-3.774519 21.53866,-5.979917 29.38936,-4.905002 8.66231,1.186033 13.79502,4.325635 16.66647,10.194596 1.8774,3.837296 1.96741,8.929825 0.29292,16.574261 -0.62547,2.855485 -1.76313,9.078452 -2.52813,13.828817 -0.76499,4.750366 -2.48643,14.597602 -3.82536,21.882754 -1.33894,7.285148 -2.9508,17.170389 -3.58195,21.967209 -1.25079,9.50567 -2.24942,14.45243 -3.54223,17.54661 -0.4595,1.09974 -0.72062,2.11436 -0.58027,2.25471 0.14034,0.14034 1.36904,0.0881 2.73039,-0.11601 4.99592,-0.74918 9.32527,-3.61742 20.63774,-13.67272 12.31493,-10.94634 15.62194,-14.651457 18.55677,-20.790787 2.02092,-4.227576 4.58173,-12.73039 4.00708,-13.305039 -0.15482,-0.15483 -1.88281,-0.474294 -3.84001,-0.709914 -6.75211,-0.812882 -11.13388,-3.701386 -13.46089,-8.873595 -1.86407,-4.143305 -1.75674,-13.177254 0.28325,-23.837565 1.75734,-9.183185 3.36308,-13.180545 6.54636,-16.29653 4.45953,-4.365306 5.65757,-4.627406 23.59417,-5.161905 8.71674,-0.259753 20.39827,-0.363185 25.95895,-0.229849 9.77554,0.234401 10.25105,0.298909 14.35995,1.948037 7.40212,2.970865 9.58,2.230033 15.06389,-5.124144 2.00179,-2.684536 4.47899,-5.445607 5.50483,-6.135712 5.21502,-3.508196 17.83713,-5.010712 26.81363,-3.191843 4.99456,1.012023 10.37812,3.231066 13.36389,5.508433 2.2458,1.712959 5.22993,6.004917 5.22993,7.522013 0,0.633052 0.27992,0.950364 0.69718,0.790259 4.85547,-1.863222 17.07744,-2.17532 43.36183,-1.10728 12.15425,0.493876 12.75164,0.570483 15.70085,2.013384 1.68618,0.824985 3.81591,2.406567 4.73267,3.514626 7.62477,9.215685 3.79465,34.553944 -6.83212,45.198058 l -3.28324,3.2886 1.27401,3.208882 c 2.20138,5.544493 2.98304,11.237154 2.67093,19.451901 -0.30484,8.02229 -1.13224,11.91211 -3.71344,17.45712 -2.20503,4.73685 -4.94488,7.94925 -8.48305,9.94606 l -2.9379,1.65804 1.61508,2.34747 c 0.88834,1.2911 2.28772,4.282 3.10983,6.64643 1.36866,3.93652 1.49267,4.96704 1.47097,12.22327 -0.0268,8.9471 -0.98994,13.64445 -4.0502,19.75259 -3.48112,6.94831 -7.63838,10.5134 -13.60659,11.66842 -2.09431,0.40532 -17.70318,0.49683 -50.34785,0.2952 l -47.31251,-0.29222 -3.21568,-1.64519 c -3.66874,-1.87701 -6.45056,-5.11103 -7.4188,-8.62474 -1.32434,-4.80624 -0.53421,-13.552 2.80259,-31.02061 2.10349,-11.01236 3.24388,-19.1146 3.2564,-23.13671 0.007,-2.1429 0.27254,-3.42158 0.79538,-3.82553 0.43196,-0.33371 0.95119,-1.52898 1.15383,-2.65614 0.33031,-1.83741 0.2491,-2.04939 -0.78538,-2.04939 -0.98179,0 -1.15383,0.32592 -1.15383,2.18601 0,1.39053 -0.24986,2.18602 -0.68669,2.18602 -0.37768,0 -1.0125,1.04519 -1.41074,2.32264 -2.12661,6.82188 -8.71035,14.01585 -22.22201,24.28185 -4.80924,3.65398 -13.17288,10.78284 -18.5859,15.84189 -16.11291,15.05937 -22.4422,19.89552 -30.4305,23.25186 -6.97132,2.92903 -9.7833,3.17837 -38.69753,3.43133 -21.82984,0.19098 -27.11005,0.0921 -29.93275,-0.56042 -4.44854,-1.02839 -7.20341,-2.46541 -9.29658,-4.8494 l -1.69028,-1.92515 -4.05982,1.87574 c -12.35761,5.70957 -31.18703,6.90658 -38.51756,2.44862 -0.98125,-0.59673 -1.98928,-1.08496 -2.24001,-1.08496 -0.25074,0 -1.35818,1.35892 -2.46097,3.01983 -4.39914,6.6256 -12.45565,13.99353 -28.48068,26.04649 -4.20809,3.16504 -10.29057,7.96639 -13.51658,10.66968 -3.22607,2.70328 -7.40683,5.74842 -9.29057,6.76697 -2.96523,1.60329 -3.93866,1.85167 -7.25059,1.85004 -3.25552,-0.002 -4.37979,-0.2789 -7.54542,-1.86104 -6.93436,-3.46574 -15.01587,-12.49158 -17.76603,-19.84203 -2.39816,-6.40967 -2.09998,-10.45258 1.33143,-18.0524 1.07001,-2.36984 1.81723,-4.43704 1.6605,-4.59378 -0.15674,-0.15673 -1.4701,-0.0341 -2.91859,0.2725 -4.76737,1.00913 -11.29807,1.30675 -15.55705,0.70897 -6.33173,-0.88871 -10.08411,-2.50905 -13.3321,-5.75704 -3.45896,-3.45897 -4.62194,-6.57745 -4.62194,-12.39357 0,-4.2966 0.18024,-5.39776 3.46971,-21.19756 1.13248,-5.43947 1.71701,-9.49813 1.4901,-10.34657 -0.20535,-0.76784 -1.05519,-1.90458 -1.88853,-2.52609 -1.40493,-1.04781 -2.13404,-1.11818 -10.02195,-0.96727 -9.43548,0.18053 -10.94713,0.59993 -12.73021,3.53196 -1.57131,2.58381 -2.51709,7.53344 -4.09765,21.44448 -3.80534,33.49214 -6.52251,38.10814 -35.58612,60.45462 -5.44831,4.18911 -12.33426,9.72936 -15.30212,12.31169 -6.48554,5.64306 -10.00322,7.99738 -13.80918,9.24225 -6.49151,2.12326 -13.43366,-0.46337 -20.55164,-7.65752 -7.21301,-7.29017 -10.85119,-14.6009 -10.8919,-21.88663 -0.0384,-6.87049 1.37343,-9.03093 12.48262,-19.10158 2.96835,-2.69086 5.13695,-4.97915 4.8191,-5.0851 -0.31784,-0.10595 -2.59204,0.18944 -5.05376,0.65643 -8.50782,1.6139 -21.60875,2.12412 -36.39067,1.41724 -7.48235,-0.35781 -21.47393,-0.85704 -31.09241,-1.10939 -20.24965,-0.53129 -22.71992,-0.98301 -27.26795,-4.98634 -4.20391,-3.70043 -4.98142,-5.7102 -4.9438,-12.77908 0.0268,-5.02863 0.40395,-7.6301 2.30692,-15.91074 2.33371,-10.15492 5.20495,-26.07934 7.23129,-40.10594 0.62962,-4.35837 1.77099,-11.10737 2.53636,-14.997782 0.97454,-4.953602 1.33027,-8.287901 1.18696,-11.125728 -0.18318,-3.627657 -0.36387,-4.189233 -1.72439,-5.359501 -1.15962,-0.997469 -2.16005,-1.307244 -4.2218,-1.307244 -1.48613,0 -2.70205,0.127849 -2.70205,0.284111 0,0.156262 0.61485,1.797256 1.36633,3.646659 2.29752,5.654231 3.1659,11.760962 2.86043,20.115415 -0.29386,8.03693 -1.28404,12.19586 -4.35212,18.27975 -1.68394,3.33918 -6.61944,8.68417 -8.59903,9.31247 -1.34347,0.4264 -1.56392,3.26843 -0.2914,3.75674 1.53632,0.58954 3.96832,5.23942 4.66133,8.91224 1.96213,10.3989 -2.7201,29.18771 -9.00814,36.14782 -2.54361,2.81548 -6.70021,4.81612 -11.57872,5.57305 -2.5016,0.38814 -18.47828,0.52859 -47.74844,0.41977 l -43.98889,-0.16354 -3.82553,-1.28651 c -6.80402,-2.28818 -10.64114,-7.60836 -10.6652,-14.78734 -0.0162,-4.83454 -1.82436,-5.16223 -2.46491,-0.4467 -1.52943,11.25909 -5.39612,14.95874 -17.92227,17.14801 -8.85963,1.54844 -21.32461,0.17472 -27.6374,-3.04583 -8.85332,-4.51662 -10.26899,-10.49535 -6.60678,-27.90203 2.89302,-13.75066 9.37137,-46.9331 10.34954,-53.01091 0.89984,-5.591134 2.35083,-20.330627 2.02329,-20.55313 -0.0479,-0.03257 -2.48782,0.105983 -5.42193,0.3079 -8.35212,0.574775 -9.54585,2.134001 -11.06416,14.451752 -1.03015,8.357398 -2.73581,18.794388 -6.22942,38.118058 -1.48638,8.22142 -3.35267,19.49769 -4.1473,25.05837 -2.27794,15.94056 -4.61742,25.7339 -7.49476,31.37395 -1.727856,3.38687 -3.969594,5.91985 -8.832225,9.97964 -2.443792,2.04032 -9.115865,8.18122 -14.826835,13.64644 -12.164998,11.64153 -16.927343,15.71044 -23.105488,19.74114 -8.119187,5.29707 -13.322433,6.62114 -18.975337,4.82867 z m 9.348144,-9.40332 c 3.459181,-1.44534 6.445778,-3.77162 13.481503,-10.5008 3.675461,-3.51532 10.986133,-9.73715 16.245941,-13.82627 11.071115,-8.60701 16.727095,-14.09408 19.081785,-18.51192 2.024667,-3.79867 3.500819,-9.92918 4.672059,-19.40322 1.773633,-14.34674 6.001353,-39.19436 8.787123,-51.64465 0.70617,-3.15606 1.79292,-10.43065 2.41498,-16.165755 1.95511,-18.025021 4.46897,-23.972479 11.11198,-26.289493 4.04455,-1.410697 15.85666,-1.40897 19.9052,0.0027 3.36316,1.172863 5.94489,3.403442 6.50024,5.616117 0.54719,2.180219 -0.54135,10.123237 -2.46431,17.981826 -2.40874,9.843855 -3.09351,13.519185 -5.24389,28.144975 -1.08272,7.36414 -2.91996,17.44714 -4.08274,22.40667 -3.32546,14.18379 -4.07364,21.11896 -2.5939,24.04376 0.94412,1.86611 4.49682,3.7139 8.95811,4.65919 6.70714,1.42114 18.2779,0.83736 22.04837,-1.11243 1.84195,-0.95251 4.13343,-5.23823 5.13744,-9.60849 0.44221,-1.92482 1.19582,-7.18857 1.6747,-11.69723 1.16744,-10.99145 2.10082,-16.7205 8.50303,-52.19116 6.12498,-33.934764 6.41519,-35.447597 8.49177,-44.266842 1.80851,-7.680741 2.05273,-14.650928 0.60762,-17.342258 -2.09597,-3.903467 -6.83179,-4.536447 -25.79617,-3.447864 -20.28775,1.164547 -26.66728,1.295162 -30.51677,0.624802 -5.77658,-1.005773 -7.18946,-1.923222 -10.06362,-6.534617 -3.47161,-5.569976 -5.03122,-6.264114 -14.68885,-6.537571 -7.914206,-0.224091 -14.345134,0.536229 -16.83498,1.990379 -0.891392,0.520602 -2.755103,2.538272 -4.141573,4.483712 -1.386476,1.945439 -3.553185,4.274943 -4.81491,5.176675 -1.261731,0.901732 -3.319073,2.377293 -4.571874,3.279025 -1.347226,0.969696 -2.818142,2.72372 -3.60037,4.293329 -1.654585,3.320086 -3.194377,10.716989 -3.691975,17.735673 -0.463266,6.534359 0.04716,7.825349 4.350994,11.00478 3.936732,2.908233 4.398206,4.389008 3.910434,12.54771 -0.461768,7.723782 -2.236574,17.542467 -5.837649,32.295367 -3.910352,16.01995 -4.684792,20.04149 -6.230694,32.35492 -2.120469,16.88997 -3.730703,22.78706 -7.654792,28.03379 -3.028376,4.04912 -6.627528,7.07559 -16.112949,13.54914 -8.146436,5.55972 -14.652313,11.37176 -16.765318,14.97734 -2.931698,5.00256 -0.968094,11.70227 5.436398,18.54869 5.341013,5.70956 9.654617,7.30756 14.387657,5.32997 z m 379.792261,-1.56108 c 1.48679,-0.7409 5.27056,-3.6988 8.40837,-6.57312 3.13782,-2.87432 9.28596,-7.96581 13.66254,-11.31442 17.87016,-13.67282 24.17518,-20.4081 27.27087,-29.13181 0.63982,-1.80301 3.0166,-13.85306 5.28172,-26.77788 3.36634,-19.20838 4.39084,-24.04857 5.61025,-26.50546 2.31481,-4.66393 2.38095,-4.68044 20.46626,-5.10758 24.74063,-0.58433 25.31436,-0.14024 21.77855,16.85742 -0.87535,4.20809 -2.22357,10.35626 -2.99604,13.66261 -1.52658,6.53407 -1.89442,14.47043 -0.78367,16.90825 1.49337,3.2776 7.12809,5.21107 16.37489,5.6188 8.26511,0.36445 13.45259,-0.42798 15.81506,-2.41586 1.79402,-1.50956 2.48764,-3.63064 3.53846,-10.82062 0.3954,-2.7052 1.24685,-7.37781 1.89211,-10.38358 0.64525,-3.00577 2.02119,-11.12136 3.05758,-18.03464 2.19908,-14.66896 2.91953,-18.62505 4.87684,-26.77871 3.95652,-16.482122 2.06005,-20.506699 -9.66351,-20.507235 -2.804,-1.25e-4 -26.03017,0.08774 -51.61372,0.195255 l -46.51554,0.19549 -2.55375,1.236242 c -3.83758,1.857743 -5.07306,4.712943 -6.36647,14.712998 -0.56858,4.39603 -1.64255,11.06687 -2.38659,14.82409 -0.74403,3.75721 -2.97362,16.23339 -4.95464,27.72483 -3.54209,20.54694 -4.17035,23.34904 -6.05016,26.98421 -1.73341,3.35203 -6.99991,8.21062 -15.81832,14.59312 -14.63324,10.5911 -19.93166,16.51607 -19.94228,22.30049 -0.008,4.12798 3.02221,9.88127 7.60544,14.4421 5.70644,5.67854 8.93419,6.62228 14.00575,4.09501 z M 574.98,217.99591 c 3.38974,-1.41632 6.49738,-3.79973 13.01319,-9.98046 3.36805,-3.19489 10.28947,-9.00087 15.38092,-12.90219 10.40424,-7.97226 16.69565,-13.73318 19.58693,-17.93537 3.44724,-5.01018 4.1671,-7.92675 6.90618,-27.98224 0.6158,-4.50866 2.82876,-16.83848 4.91777,-27.39962 2.08896,-10.56113 4.29055,-23.349332 4.89247,-28.418219 1.76865,-14.895016 3.39959,-19.319334 7.93016,-21.512543 3.66486,-1.774128 7.62275,-1.888391 18.85429,-0.544307 11.21027,1.341547 16.19756,1.225202 19.48899,-0.454643 3.67918,-1.877761 5.24076,-4.511715 5.88777,-9.931097 0.19739,-1.653175 0.98983,-6.062754 1.76094,-9.799065 1.9543,-9.469034 1.40261,-12.740142 -2.45763,-14.571936 -1.60273,-0.760564 -3.61288,-0.821148 -15.85365,-0.477813 -19.69459,0.552403 -20.08157,0.445539 -26.14033,-7.218643 -2.52529,-3.194429 -4.90559,-3.729477 -16.56936,-3.724435 -12.61178,0.0055 -14.51575,0.547335 -18.95074,5.393524 -4.51478,4.933414 -5.34487,5.349549 -11.75159,5.891285 -3.02506,0.255789 -6.13522,0.771541 -6.91142,1.146115 -4.7829,2.307976 -9.35675,15.894947 -8.71538,25.889521 0.3966,6.179435 2.0876,7.520387 10.10957,8.016804 2.7728,0.171591 5.72392,0.636038 6.55805,1.032112 4.83672,2.296689 4.6631,11.291597 -0.62192,32.22579 -1.31642,5.2145 -2.90473,13.16981 -3.52955,17.67847 -0.62487,4.50866 -1.63574,11.79526 -2.2464,16.19245 -1.45294,10.46155 -3.49091,18.45751 -5.86306,23.00349 -2.51338,4.81657 -8.09335,10.12756 -17.64652,16.79583 -8.40042,5.86363 -15.60444,12.70725 -17.45067,16.57764 -0.98767,2.07053 -1.17223,3.124 -0.88403,5.04589 0.925,6.1683 7.45145,14.90949 13.09335,17.53658 3.29296,1.53333 4.4063,1.59926 7.21167,0.42708 z M 336.04525,175.95423 c 10.89283,-1.28242 60.78534,-1.34009 70.74251,-0.0818 9.02639,1.1407 13.28281,1.16297 16.90116,0.0884 6.05435,-1.79794 7.56137,-4.60291 9.68224,-18.02116 2.4777,-15.67587 5.02526,-29.13593 7.08535,-37.43554 4.80034,-19.33939 4.82814,-28.443488 0.0948,-31.035109 -1.56714,-0.858045 -4.19376,-0.918641 -31.76614,-0.732879 -24.8925,0.167711 -30.32424,0.338734 -31.60865,0.995255 -3.15784,1.614123 -6.04812,11.325233 -6.72723,22.602993 -0.29013,4.81823 -0.19281,6.09149 0.59205,7.74545 1.61741,3.40845 3.41504,3.90075 15.61041,4.27508 5.86126,0.17991 11.30083,0.59835 12.08795,0.92987 0.78712,0.33152 1.98043,1.29743 2.65182,2.14646 1.01411,1.28246 1.16859,1.98938 0.91281,4.17727 -0.65326,5.58775 -4.58657,8.64693 -12.37355,9.62363 -4.63516,0.58138 -26.65333,-0.54197 -28.96473,-1.47776 -2.10243,-0.85119 -3.86613,-3.06523 -4.42571,-5.55576 -0.61771,-2.74921 0.0396,-7.27741 2.26323,-15.59035 0.88191,-3.29705 1.97793,-9.44523 2.4356,-13.66261 2.18392,-20.124629 3.5788,-25.418408 7.73686,-29.362518 3.28783,-3.118665 4.84835,-3.417045 17.12922,-3.275206 6.16183,0.07117 15.50706,0.364847 20.76716,0.652619 16.05276,0.878233 28.73933,0.568671 35.66117,-0.87016 3.33126,-0.692465 7.00479,-6.351707 9.26344,-14.270755 1.72367,-6.043305 1.78451,-15.76056 0.11284,-18.02039 -2.29321,-3.100047 -1.64927,-3.045126 -33.21173,-2.832583 -15.97233,0.107558 -31.04355,0.166732 -33.49159,0.131497 -5.74293,-0.08266 -8.0558,-1.162249 -10.40001,-4.854475 -3.59783,-5.666754 -4.38779,-6.279271 -8.92194,-6.917912 -5.0014,-0.704455 -19.23044,-0.279501 -21.86017,0.65286 -2.56507,0.909438 -4.08706,2.373931 -6.36606,6.125565 -1.53733,2.530723 -2.63485,3.566225 -5.64002,5.321344 -5.75472,3.360937 -7.27147,5.577289 -9.01899,13.17905 -0.96711,4.206964 -1.78491,17.939828 -1.20574,20.247426 0.2178,0.867777 1.17647,1.733429 2.78533,2.515078 4.03391,1.959819 5.50318,5.399593 4.68783,10.974849 -1.59712,10.920788 -3.71084,23.335971 -6.52888,38.348191 -1.77734,9.46819 -3.62079,19.92008 -4.09656,23.22643 -0.47577,3.30635 -1.46445,8.59378 -2.19709,11.74984 -2.55572,11.0097 -2.25592,15.0836 1.26067,17.13038 3.72061,2.16553 7.66368,2.41435 18.34035,1.15738 z m -49.03908,-0.97887 c 4.8057,-2.48512 9.95145,-17.00226 9.34978,-26.37754 -0.28508,-4.44206 -1.29109,-6.51107 -3.59489,-7.3934 -0.94694,-0.36267 -10.57182,-0.54259 -26.90725,-0.50298 -26.7464,0.0649 -29.5874,-0.13882 -32.87919,-2.35715 -2.51661,-1.69594 -3.06207,-3.57213 -1.83175,-6.3005 3.83401,-8.50232 15.18846,-11.20009 39.37672,-9.35572 11.03016,0.84106 23.17372,0.87816 25.52176,0.078 4.38583,-1.49463 7.03502,-7.04511 8.93858,-18.7278 1.13749,-6.981121 0.78175,-11.265179 -1.11878,-13.473007 l -1.27835,-1.485054 -28.0547,-0.04711 c -27.35597,-0.04596 -28.1198,-0.07602 -30.66904,-1.20707 -3.30257,-1.465292 -4.496,-3.813162 -3.71197,-7.302635 0.71117,-3.165178 2.10152,-4.875343 5.26171,-6.472037 l 2.70412,-1.366277 28.78895,-0.273252 c 32.9434,-0.312682 30.57506,0.07691 33.36998,-5.48946 3.45924,-6.889426 5.45131,-21.728518 3.53173,-26.308113 -1.7079,-4.074576 -4.08632,-4.468691 -22.34012,-3.701846 -26.0299,1.093519 -37.51061,0.688929 -40.58742,-1.430336 -0.61798,-0.42566 -2.11144,-2.551027 -3.31878,-4.723039 -2.71987,-4.893032 -4.57546,-6.229032 -9.36381,-6.741821 -3.90893,-0.418611 -15.71947,0.09866 -18.96485,0.830613 -3.08766,0.69638 -4.45515,1.852593 -7.46287,6.30983 -1.90179,2.81834 -4.08411,5.135001 -6.98254,7.412398 -2.31888,1.82202 -4.75208,4.218064 -5.40712,5.324542 -1.70332,2.877201 -4.00081,14.409555 -4.00081,20.082255 0,5.463727 0.45052,6.537159 4.3379,10.335806 1.53128,1.496324 3.00241,3.511082 3.26918,4.477247 1.68446,6.100605 -4.82164,44.468896 -12.26302,72.318536 -3.95526,14.80269 -3.83755,20.66764 0.4671,23.27273 1.66324,1.00657 3.09195,1.04161 37.25235,0.91388 19.53752,-0.0731 37.73611,0.0911 40.44131,0.36477 7.11179,0.7195 16.06493,0.38143 18.12609,-0.68444 z m 643.41728,-0.2248 c 5.11823,-2.18428 10.22203,-13.37317 10.78838,-23.65102 0.24947,-4.52747 0.13323,-5.5909 -0.85523,-7.82555 -1.96211,-4.43562 -1.22745,-4.33403 -32.06657,-4.4346 -28.1541,-0.0918 -29.70038,-0.21647 -32.06942,-2.58552 -2.2399,-2.23988 -0.0333,-7.77355 4.12436,-10.34336 0.94207,-0.58227 3.43434,-1.60534 5.53838,-2.2735 3.44194,-1.093 4.94898,-1.21399 15.02887,-1.20656 6.16184,0.004 16.85966,0.2195 23.77293,0.4777 16.5275,0.61727 18.69744,0.015 21.31815,-5.91672 2.58223,-5.84466 3.80897,-12.12487 3.8152,-19.531965 0.005,-6.586507 -0.0588,-6.991701 -1.32483,-8.340326 -2.39222,-2.54835 -3.90685,-2.662361 -31.10314,-2.34135 -27.1294,0.320224 -29.24077,0.161486 -31.53237,-2.370703 -2.18307,-2.412258 -0.60711,-7.783269 2.99621,-10.211568 3.61857,-2.438529 4.53101,-2.515542 33.64477,-2.839669 l 27.87171,-0.310299 1.84407,-1.315212 c 3.51605,-2.507689 6.51608,-12.168628 6.97394,-22.457722 0.31845,-7.157011 -0.38293,-9.443305 -3.35296,-10.929458 -1.8838,-0.942616 -10.81188,-0.941896 -31.22015,0.0025 -13.87815,0.642227 -23.48935,0.07972 -27.27876,-1.596515 -1.72406,-0.762639 -2.71389,-1.714305 -3.82717,-3.679808 -2.88986,-5.101803 -3.81782,-6.227874 -6.01723,-7.301792 -3.14661,-1.536428 -7.84299,-1.876059 -15.33365,-1.108888 -9.06252,0.928159 -10.86844,1.798728 -15.12205,7.28991 -2.62644,3.390626 -4.32432,4.957577 -7.48301,6.905857 -3.47593,2.143963 -4.30525,2.959417 -5.55652,5.463574 -1.84451,3.691509 -3.53769,10.370277 -4.32815,17.072736 -0.85244,7.227857 -0.29949,9.00804 4.1542,13.374931 2.58004,2.529752 3.56594,3.919725 3.84853,5.426022 0.90873,4.843979 -0.99928,18.792597 -4.98996,36.479325 -4.076,18.06476 -5.31596,24.82546 -9.07165,49.46164 -1.14558,7.51469 0.98207,10.16792 8.77167,10.93844 6.2819,0.62139 86.51883,0.32925 88.04145,-0.32055 z m -193.4625,-1.1334 13.93586,-0.37532 4.10507,-1.96056 c 4.81863,-2.30135 8.17368,-4.93199 17.56787,-13.77465 3.80454,-3.58117 12.04309,-10.4279 18.30789,-15.21496 18.1693,-13.88348 24.60952,-20.40413 29.23114,-29.59601 2.76149,-5.49236 3.9521,-10.30045 5.37422,-21.702706 0.61853,-4.959526 1.97812,-13.198077 3.02124,-18.307892 2.47429,-12.120608 5.18796,-28.263807 5.18796,-30.862743 0,-2.353926 -1.58087,-4.708362 -3.76066,-5.600878 -1.9414,-0.794894 -38.07522,-1.095874 -42.38452,-0.353045 -6.09915,1.051357 -10.18793,4.008124 -12.38837,8.958624 -1.18062,2.655968 -3.22143,13.624994 -3.22143,17.314342 0,2.937205 0.97611,5.761881 2.39877,6.941773 0.55651,0.461506 3.5742,1.041315 7.53072,1.446903 8.08515,0.828823 8.9142,1.406297 9.79855,6.825083 1.52628,9.351988 -1.90681,19.376559 -9.85735,28.783279 -3.51954,4.16417 -23.16681,22.14451 -28.72508,26.28795 -6.47564,4.82731 -13.02872,6.89578 -19.19531,6.05896 -8.56345,-1.16209 -10.13514,-8.09845 -5.71414,-25.21873 3.13595,-12.14415 4.58556,-19.763363 7.14899,-37.575744 1.2328,-8.566454 2.96659,-18.843572 3.8528,-22.83804 3.48834,-15.722928 1.89506,-18.155754 -11.88341,-18.145293 -7.88693,0.006 -15.32441,0.902878 -17.36375,2.093905 -3.62638,2.117936 -5.31377,6.421081 -6.59554,16.820167 -0.44906,3.643014 -1.53518,9.914477 -2.41358,13.936584 -3.25963,14.92509 -7.80233,40.503161 -11.49009,64.695861 -0.91632,6.01155 -2.42495,14.12714 -3.35242,18.03464 -2.99533,12.61912 -2.66896,19.47099 1.04432,21.92713 3.74437,2.47667 6.76255,2.56154 49.84025,1.40137 z m -71.64845,-0.96301 c 4.85339,-1.94196 7.06422,-8.25905 9.0706,-25.91776 0.49519,-4.35838 1.76625,-12.59693 2.82456,-18.3079 3.71683,-20.05675 5.6491,-31.707866 5.61855,-33.878121 -0.0508,-3.628324 -1.1117,-5.904918 -3.2482,-6.972219 -1.62525,-0.811909 -3.51452,-0.955202 -12.5696,-0.953333 -5.86126,0.0011 -11.5837,0.259595 -12.71655,0.574195 -4.89723,1.359987 -7.43579,6.377639 -8.5893,16.977218 -0.55219,5.07405 -1.61913,11.99492 -5.50537,35.71126 -0.63876,3.89783 -1.99589,10.41489 -3.016,14.48236 -2.99315,11.93505 -2.46943,16.34303 2.18241,18.36844 2.60983,1.13633 23.0644,1.07 25.9489,-0.0841 z m -92.55776,-6.92674 c 2.40139,-2.47977 5.40853,-5.62462 6.68254,-6.98858 l 2.31642,-2.47991 2.39735,-12.54895 c 4.37023,-22.87552 11.46341,-62.538238 11.22585,-62.771382 -0.12859,-0.126215 -4.96789,-0.40872 -10.754,-0.627797 l -10.52021,-0.398319 0.009,1.304833 c 0.005,0.717658 0.63608,1.89943 1.4019,2.626161 0.76587,0.72673 1.90965,2.325255 2.54173,3.552277 2.1976,4.266094 1.37594,10.492936 -6.09926,46.224537 -3.83985,18.35443 -6.00499,36.61579 -4.34132,36.61579 0.42535,0 2.7381,-2.0289 5.13955,-4.50866 z m -5.5885,-93.87516 c 2.04617,-0.29585 4.4427,-0.911454 5.32558,-1.368004 5.26065,-2.72041 9.65301,-24.840423 6.24222,-31.436181 -1.26368,-2.443622 -4.02358,-2.991234 -13.64867,-2.708095 -11.18293,0.328966 -72.80586,0.326185 -83.61514,-0.0038 -4.80924,-0.146805 -9.67156,-0.07034 -10.80515,0.169916 -5.79129,1.227432 -9.49073,9.407857 -10.059,22.24309 -0.31959,7.218501 0.3063,9.896814 2.73359,11.697644 1.53938,1.142079 1.6587,1.144855 43.72034,1.016148 23.19721,-0.07098 44.51305,0.07641 47.36853,0.327536 7.45224,0.655385 8.59345,0.660915 12.7377,0.06172 z"
       id="path1133"
       transform="matrix(0.26458333,0,0,0.26458333,-36.964292,63.457985)" />
    <path
       style="fill:#ffffff;stroke-width:0.546504"
       d="m 674.93059,48.775502 c 0.5856,-6.878653 0.33828,-6.521291 4.25429,-6.147323 7.14591,0.682415 6.98856,0.61444 6.69772,2.893517 -0.14207,1.113294 -0.40416,3.192325 -0.58241,4.620067 l -0.32411,2.595895 h -5.1914 -5.19139 z"
       id="path1135"
       transform="matrix(0.26458333,0,0,0.26458333,-36.964292,63.457985)" />
    <path
       style="fill:#ffffff;stroke-width:0.546504"
       d="m 836.58966,287.7014 c -9.50895,-1.23794 -12.73454,-3.32345 -12.73454,-8.23356 0,-4.81898 2.02105,-7.29862 6.60039,-8.09808 12.81276,-2.23683 40.48039,-2.78489 46.95703,-0.93015 3.4349,0.98367 5.46504,2.93039 5.46504,5.24049 0,2.23195 -3.15205,6.5898 -6.01155,8.31121 -5.24873,3.15973 -28.2376,5.27737 -40.27637,3.71009 z"
       id="path1137"
       transform="matrix(0.26458333,0,0,0.26458333,-36.964292,63.457985)" />
    <path
       style="fill:#ffffff;stroke-width:0.546504"
       d="m 696.37324,287.68627 c -5.20985,-0.76264 -7.59577,-1.59834 -9.23053,-3.2331 -1.27159,-1.27159 -1.55316,-2.02486 -1.55316,-4.15517 0,-3.28314 1.80134,-7.10126 3.97347,-8.42222 3.14654,-1.91352 7.70002,-2.22361 28.13947,-1.91627 10.74244,0.16153 20.42564,0.43195 21.51821,0.60093 4.54124,0.70234 5.55689,4.2372 2.52216,8.77808 -3.33538,4.99078 -7.85478,6.98331 -18.97668,8.36652 -5.36769,0.66757 -21.7841,0.65589 -26.39294,-0.0188 z"
       id="path1139"
       transform="matrix(0.26458333,0,0,0.26458333,-36.964292,63.457985)" />
    <path
       style="fill:#ffffff;stroke-width:0.546504"
       d="m 262.22144,438.93794 c -3.5994,-1.32705 -6.82689,-4.34459 -13.25152,-12.38952 -8.60052,-10.76956 -9.02737,-11.59515 -9.04258,-17.49 -0.0104,-4.04204 0.19549,-5.06785 1.58566,-7.89921 2.32791,-4.74126 8.94782,-11.32305 19.98927,-19.87417 11.23902,-8.70413 15.73424,-13.06702 17.62621,-17.10737 1.57628,-3.36618 2.87488,-8.87387 3.39875,-14.41496 0.4858,-5.13854 4.43511,-34.12167 5.50083,-40.36942 1.88827,-11.07001 5.4395,-22.27194 9.07521,-28.62674 0.90283,-1.57803 1.49274,-2.86915 1.31091,-2.86915 -0.18183,0 -1.85989,0.55334 -3.72902,1.22963 -3.27037,1.18331 -4.02017,1.2257 -19.90147,1.12502 l -16.50307,-0.10463 -0.26524,2.29064 c -0.14588,1.25985 -0.53372,4.90061 -0.86186,8.09057 -0.58568,5.69355 -2.61891,16.1955 -7.12998,36.8274 -2.12357,9.7124 -2.85494,14.12886 -5.20382,31.424 -1.08791,8.01042 -2.87441,14.56501 -5.25531,19.28155 -2.83015,5.6065 -10.17597,12.59146 -29.70888,28.24947 -5.40924,4.33616 -12.8472,10.41276 -16.52879,13.50356 -3.68159,3.0908 -7.9576,6.26005 -9.50223,7.04278 -5.97292,3.0267 -12.40917,2.17236 -17.39326,-2.30877 -4.55754,-4.09762 -14.82823,-16.57779 -16.34584,-19.86224 -1.07078,-2.3174 -1.3908,-3.8954 -1.39738,-6.89036 -0.018,-8.19846 5.47223,-15.23541 20.18178,-25.86754 18.08052,-13.06869 20.14372,-15.85639 21.83275,-29.49934 0.45062,-3.63978 1.67697,-11.10248 2.72522,-16.58375 2.33799,-12.22517 7.95903,-44.26282 7.95903,-45.36319 0,-0.6071 -0.96116,-0.86377 -3.96216,-1.05803 -10.18824,-0.65952 -14.61899,-5.65686 -14.61899,-16.48841 0,-6.3418 2.31375,-23.22248 3.73867,-27.27662 1.47915,-4.20847 4.07403,-7.77314 6.79897,-9.33999 2.74525,-1.57852 3.86308,-1.83024 11.18861,-2.51955 3.0824,-0.29004 6.27945,-0.88298 7.10455,-1.31764 0.8251,-0.43466 2.85279,-2.17197 4.50596,-3.86068 4.3193,-4.41216 5.18491,-4.57966 23.77294,-4.6003 17.05211,-0.0189 19.60223,0.34559 22.94399,3.2797 1.0673,0.9371 2.18874,2.61118 2.5444,3.79827 l 0.63596,2.12263 54.4311,0.14933 54.43109,0.14932 2.73252,1.25516 c 1.50289,0.69034 3.63988,1.88164 4.74887,2.64732 2.17019,1.49838 5.90796,5.9621 5.90796,7.05541 0,2.13697 -17.64691,2.72585 -41.80757,1.39514 -28.53613,-1.57171 -31.87735,-1.44406 -35.1914,1.34453 -3.75743,3.16167 -7.82578,19.06016 -6.8585,26.80198 0.67067,5.36785 3.06165,6.88261 10.758,6.81549 2.48226,-0.0216 25.78587,-0.12632 51.78581,-0.23261 51.99706,-0.21256 49.91612,-0.0717 52.48985,-3.55287 l 1.22546,-1.65753 2.51695,1.01082 c 1.38432,0.55595 3.99251,1.64228 5.79597,2.41408 2.86598,1.22649 4.05691,1.40488 9.45434,1.41622 6.81668,0.0143 8.74661,0.60338 9.84016,3.00347 1.0896,2.3914 0.74494,6.63004 -1.21932,14.99522 -1.11949,4.76756 -2.33721,12.25785 -3.02877,18.63006 -2.50032,23.03886 -5.36134,38.39262 -8.75785,46.99937 -4.7471,12.02914 -8.77018,16.65981 -24.00487,27.63026 -7.32691,5.27609 -13.34796,10.93954 -15.04161,14.14828 -0.94441,1.78923 -0.98655,2.29036 -0.38444,4.57155 0.84208,3.19034 3.71163,7.59303 7.68758,11.7949 6.31496,6.67379 9.23372,7.71549 13.56033,4.83962 1.24356,-0.82659 7.01078,-5.55179 12.81603,-10.50046 5.80525,-4.94867 13.8678,-11.58869 17.91676,-14.75561 14.19866,-11.10556 17.918,-15.48122 20.79598,-24.46566 3.24952,-10.14434 4.67428,-17.77491 7.37441,-39.49508 1.99728,-16.06637 3.01115,-22.83012 4.34173,-28.96473 0.42377,-1.95375 1.18291,-6.60703 1.687,-10.34062 1.46908,-10.88092 3.48182,-15.27717 8.06605,-17.61803 3.40501,-1.73871 8.15422,-1.85178 19.56037,-0.46572 19.96837,2.42652 23.41623,0.45636 25.88205,-14.78942 0.43691,-2.70133 0.96044,-7.32265 1.16341,-10.2696 0.44432,-6.45131 -0.0409,-7.51476 -4.30953,-9.44516 -2.78359,-1.25882 -3.18822,-1.2857 -19.3533,-1.2857 -18.11693,0 -17.69899,0.0749 -18.6808,-3.34844 -0.76962,-2.68352 0.52267,-4.95326 3.61391,-6.34738 2.38758,-1.07677 3.97653,-1.21804 18.46106,-1.64122 16.63095,-0.4859 20.78547,-0.20104 25.15036,1.7245 2.20568,0.97302 10.77261,8.45551 11.08662,9.68323 0.0922,0.36063 -0.32709,0.81273 -0.93185,1.00467 -1.64654,0.52259 -5.96147,5.57732 -7.69404,9.01317 -4.80329,9.52544 -5.69081,21.55497 -1.81523,24.60351 1.23563,0.97194 2.20869,1.10399 8.13539,1.10399 3.83928,0 7.31413,0.26529 8.08692,0.6174 3.31312,1.50955 3.51522,7.41519 0.66313,19.37688 -1.36619,5.72983 -2.54885,13.21109 -3.88697,24.58827 -2.63299,22.38649 -3.55215,27.521 -6.64505,37.11983 -3.73653,11.59635 -8.46963,17.34173 -22.52641,27.34425 -9.5071,6.76506 -15.16583,12.03929 -17.01473,15.85861 -1.13609,2.34684 -1.19568,2.84145 -0.60733,5.04119 0.35879,1.34148 1.26433,3.48333 2.01231,4.75967 2.17988,3.71968 7.40462,9.60152 10.28196,11.57509 5.9504,4.08139 9.79016,2.14124 25.76265,-13.01733 3.60693,-3.42312 9.63214,-8.54394 13.38935,-11.37958 3.75722,-2.83564 9.19343,-7.50326 12.08047,-10.37246 7.98282,-7.93351 9.27328,-11.30077 11.64807,-30.39393 0.75031,-6.03244 3.08615,-19.70093 5.19076,-30.37442 2.1046,-10.6735 4.33235,-23.32165 4.95056,-28.10699 1.69964,-13.15647 3.48347,-18.05861 7.57455,-20.81559 3.25377,-2.19271 6.68301,-2.50308 22.97209,-2.07916 20.45596,0.53237 19.72782,0.89559 22.8879,-11.41717 2.25788,-8.79747 2.91836,-17.02419 1.61551,-20.12213 -1.5566,-3.70129 -5.32832,-4.66113 -15.26038,-3.88351 -3.22126,0.2522 -6.25587,0.31858 -6.74357,0.1475 -0.6778,-0.23776 0.01,-1.15687 2.91847,-3.9007 5.53873,-5.22495 6.37975,-5.44668 22.52479,-5.9386 7.36414,-0.22438 20.2753,-0.72658 28.69147,-1.116 15.93448,-0.73729 48.56242,-0.30894 93.32133,1.22517 18.8867,0.64733 19.02595,0.64404 24.04619,-0.56785 l 5.04943,-1.21895 59.2957,0.1622 c 67.2356,0.18392 62.16885,-0.17402 67.25626,4.75128 3.53375,3.42111 4.61954,7.08221 4.14545,13.9779 -0.40977,5.95988 -3.5008,24.93589 -8.32583,51.11231 -4.05156,21.98022 -4.71283,24.86643 -6.5105,28.41388 -1.16356,2.29619 -5.14638,6.55015 -6.15194,6.57076 -0.22456,0.004 -0.73708,0.21676 -1.13892,0.47147 -0.59345,0.37619 -0.47426,1.27456 0.63515,4.78647 2.08622,6.60414 2.737,12.38922 2.41172,21.43962 -0.22095,6.14805 -0.56776,8.8816 -1.50004,11.82262 -3.00501,9.48017 -7.23173,14.24142 -14.61517,16.4635 -2.16869,0.65269 -12.11774,0.77478 -61.81864,0.75861 -57.94,-0.0188 -59.33009,-0.0438 -63.63304,-1.14245 -4.38499,-1.11958 -4.47265,-1.12023 -27.39271,-0.2027 -24.39682,0.97665 -101.38823,1.86499 -107.51014,1.24046 -8.39003,-0.8559 -12.46988,-5.63561 -14.12381,-16.54662 -2.10931,-13.91521 4.5946,-32.40115 13.11322,-36.15956 l 2.05809,-0.90803 -1.85412,-3.90425 c -4.71845,-9.93571 -4.58127,-16.64489 0.83882,-41.02555 0.62269,-2.801 0.88759,-5.12127 0.61572,-5.39314 -0.26243,-0.26243 -6.33797,-0.50951 -13.5012,-0.54905 -12.36236,-0.0682 -13.15687,-0.0105 -15.6384,1.13517 -1.95327,0.90184 -2.81857,1.69582 -3.42195,3.13993 -1.53319,3.66941 -2.46617,8.2549 -3.56333,17.51317 -1.57148,13.26084 -10.05648,59.94911 -12.5433,69.01883 -3.14565,11.47258 -7.47441,16.291 -33.32725,37.09711 -3.75722,3.02378 -9.5365,7.89947 -12.84285,10.83488 -12.63063,11.2136 -17.24239,12.62705 -26.50545,8.12366 -3.22239,-1.56662 -5.15046,-3.05979 -9.01732,-6.98335 -7.52157,-7.63186 -11.2694,-15.0152 -11.3267,-22.31397 -0.0622,-7.9252 4.81034,-13.97331 20.89052,-25.93046 5.2601,-3.9114 11.03939,-8.69132 12.84285,-10.62206 7.3791,-7.89986 9.97683,-16.20531 12.57501,-40.20486 1.26584,-11.69251 2.10469,-16.75101 4.87599,-29.40336 0.46085,-2.10404 0.84219,-5.58246 0.8474,-7.72982 l 0.009,-3.90429 -4.50866,-0.26143 c -7.47778,-0.43359 -50.36105,0.80984 -50.81652,1.47346 -0.22084,0.32175 -0.40528,2.35538 -0.40988,4.51917 -0.018,8.4868 -2.25909,21.99881 -7.73173,46.61747 -2.10475,9.46819 -4.42737,21.27268 -5.16138,26.23221 -2.22606,15.04088 -3.73269,19.22145 -9.51975,26.41517 -3.84467,4.77921 -7.59588,8.10598 -20.45768,18.14292 -5.13094,4.00403 -12.40307,10.16305 -16.16029,13.68672 -18.72342,17.55957 -26.15992,17.2306 -41.48547,-1.83523 -5.25008,-6.53138 -7.34401,-10.76601 -7.60468,-15.37914 -0.25282,-4.47427 0.42006,-7.07183 2.89776,-11.18646 1.05905,-1.75874 1.92555,-3.28654 1.92555,-3.39512 0,-0.10858 -3.87335,-0.17721 -8.60744,-0.15249 -6.65919,0.0348 -9.15559,-0.1554 -11.02918,-0.8401 -5.24893,-1.91822 -8.04184,-5.58064 -9.35823,-12.27167 -1.4276,-7.25633 0.43834,-21.83058 4.35408,-34.00829 0.92818,-2.88657 1.68759,-5.40732 1.68759,-5.60167 0,-0.19434 -5.51428,-0.35335 -12.25396,-0.35335 h -12.25396 l -0.56189,1.77614 c -1.99619,6.30993 -2.72311,10.52547 -4.7205,27.37486 -1.6177,13.64642 -3.59623,22.23913 -6.55765,28.47973 -2.60991,5.49986 -7.40884,10.38992 -17.95282,18.29375 -4.16606,3.12291 -11.17498,9.14663 -15.57537,13.38604 -12.21461,11.76778 -18.08037,16.17798 -24.41708,18.35813 -3.4934,1.2019 -8.30102,1.35953 -11.00942,0.36098 z m 12.00169,-11.41884 c 1.63141,-1.0832 5.75371,-4.58229 9.16068,-7.77575 3.40696,-3.19347 10.51371,-9.05127 15.79278,-13.01734 11.25575,-8.45623 19.22394,-16.12111 21.74081,-20.91321 3.20704,-6.1062 4.59709,-13.49336 8.06905,-42.8814 0.98387,-8.32791 2.04355,-12.54139 4.04761,-16.09403 2.57154,-4.55861 2.63483,-4.57206 22.46694,-4.77244 24.35139,-0.24605 23.35297,-1.02549 20.80431,16.24146 -1.63767,11.0951 -2.58448,16.20581 -4.451,24.02591 -1.21117,5.07438 -1.30692,7.31161 -0.39829,9.30584 1.26604,2.77868 2.99553,3.18026 15.46897,3.59189 6.31213,0.20831 12.09141,0.26119 12.84285,0.11751 4.65224,-0.88952 6.50613,-3.31003 7.87561,-10.28272 3.29011,-16.75145 5.03823,-26.89258 7.96041,-46.1796 1.20682,-7.9653 2.56088,-15.83496 3.00903,-17.48814 2.14868,-7.92635 1.46767,-12.81276 -1.985,-14.2429 -2.30611,-0.95522 -105.98086,-0.94479 -108.8768,0.0109 -4.9247,1.6253 -6.91859,6.98113 -8.82703,23.7105 -0.83946,7.35875 -1.37914,10.61373 -5.3602,32.32902 -1.047,5.71097 -2.31948,12.93678 -2.82774,16.05736 -1.64518,10.10085 -3.80848,14.50039 -10.60567,21.56888 -3.82702,3.97977 -13.29547,11.85345 -21.99847,18.29326 -8.68622,6.42739 -9.9857,8.85773 -7.57538,14.16774 2.21744,4.88506 7.81679,11.71804 12.31193,15.02446 1.94118,1.42784 2.53336,1.58353 5.28721,1.39006 2.42715,-0.17052 3.7459,-0.64593 6.06739,-2.18731 z m -92.90218,-10.05444 c 3.34104,-1.67678 5.96693,-3.73727 12.68547,-9.95408 2.70662,-2.50449 8.73299,-7.46157 13.39193,-11.01572 20.61277,-15.7248 23.98841,-20.25834 25.98385,-34.89677 0.47761,-3.50369 1.5801,-10.05924 2.44997,-14.5679 0.86988,-4.50866 3.07807,-16.79899 4.90709,-27.31183 1.82902,-10.51285 3.57146,-20.21184 3.87209,-21.55332 0.30063,-1.34148 1.02987,-5.65122 1.62053,-9.57721 0.59066,-3.92598 1.47054,-8.33884 1.95529,-9.80634 1.15225,-3.48824 5.15495,-7.66548 8.12331,-8.47753 2.99316,-0.81883 10.32547,-0.72699 17.21489,0.21563 6.96995,0.95365 13.94225,1.03748 16.4502,0.19778 4.93305,-1.65165 6.92147,-4.58723 8.92649,-13.1785 3.52553,-15.10649 3.26817,-20.84128 -0.99845,-22.24939 -1.43737,-0.47438 -5.86859,-0.54243 -16.62433,-0.25533 -19.56418,0.52223 -20.64878,0.24328 -24.12598,-6.20499 -1.92933,-3.57783 -4.66305,-4.85015 -12.10835,-5.63544 -6.89494,-0.72724 -15.014,-0.0348 -18.6976,1.59462 -1.32333,0.58537 -3.11561,1.99268 -3.98285,3.12734 -3.27476,4.28461 -5.82029,6.77088 -7.49974,7.32515 -0.95502,0.31518 -4.57276,0.51218 -8.03945,0.43778 -8.64704,-0.1856 -9.57749,0.51954 -12.44136,9.42854 -2.82357,8.78367 -4.03753,21.10726 -2.28771,23.22389 1.49288,1.80584 4.11404,2.46181 9.83707,2.46181 5.94276,0 8.78657,0.76962 9.79309,2.65032 1.49731,2.79775 0.40781,12.07686 -2.91664,24.84058 -1.64801,6.32726 -3.09886,14.75539 -4.67534,27.15952 -1.47476,11.60376 -2.99988,20.33112 -4.63603,26.52932 -3.24494,12.29276 -6.47575,16.12432 -23.25119,27.5746 -10.94482,7.47052 -17.48772,14.3871 -17.48772,18.4865 0,2.1913 1.57656,6.35755 3.45834,9.13908 3.88336,5.74012 11.52574,11.72272 14.97502,11.72272 0.70242,0 2.56007,-0.64387 4.12811,-1.43083 z m 516.2917,-43.10926 c 19.38724,0 39.93361,0.22096 45.65862,0.49104 17.78139,0.83883 19.81745,-0.45415 22.41875,-14.237 0.85501,-4.5301 1.44972,-21.01427 0.78216,-21.67876 -0.15029,-0.14959 -26.95632,-0.33798 -59.56896,-0.41864 l -59.29571,-0.14665 -3.2596,1.32663 c -3.64684,1.48422 -4.98849,3.05647 -6.88809,8.072 -2.59712,6.8572 -4.00403,18.55805 -2.7643,22.98983 0.45295,1.6192 2.59743,3.27993 5.05479,3.91455 1.01511,0.26215 6.51827,0.29897 12.22923,0.0818 5.71097,-0.21715 26.24587,-0.39482 45.63311,-0.39482 z m 137.71906,0 c 19.68782,0 40.22271,0.21713 45.63311,0.48252 11.93472,0.58541 15.16614,0.1048 18.29373,-2.72079 3.64497,-3.29297 5.44871,-11.86085 5.46975,-25.98128 l 0.009,-6.35937 -2.42818,-0.36412 c -6.93765,-1.04038 -17.04803,-1.23401 -52.22225,-1.00015 -21.1907,0.14089 -42.46337,0.0251 -47.27261,-0.25724 -14.26759,-0.83769 -21.56402,0.27053 -24.66199,3.74581 -1.51086,1.69486 -2.2234,4.07446 -2.92691,9.77469 -0.31533,2.55491 -1.05705,6.48974 -1.64831,8.74407 -1.55005,5.90995 -1.45851,9.86628 0.27609,11.92773 2.1241,2.52432 4.21328,2.84673 15.57176,2.40305 5.56068,-0.21721 26.21854,-0.39492 45.90636,-0.39492 z M 422.5501,356.32076 c 6.92022,-18.41767 12.17263,-44.56643 14.68235,-73.09494 l 0.3726,-4.23541 h -4.7732 -4.7732 l 0.35347,1.50289 c 0.76275,3.24294 0.99896,19.125 0.36791,24.73722 -0.35438,3.15171 -2.33897,14.21486 -4.41018,24.58478 -2.07123,10.36992 -4.02961,20.82181 -4.35198,23.22643 -0.32237,2.40462 -0.71275,5.31344 -0.86752,6.46405 -0.23529,1.74917 -0.1312,2.06265 0.63513,1.91277 0.59345,-0.11607 1.56799,-1.91306 2.76462,-5.09779 z m 481.51228,-33.89562 c 3.79586,-1.12724 5.91279,-3.34551 6.64145,-6.95924 2.12869,-10.55761 5.71665,-30.55987 6.88601,-38.38826 0.76324,-5.10981 2.25821,-13.47133 3.3222,-18.58114 2.74722,-13.19429 3.24454,-16.75102 2.63786,-18.8663 -1.23165,-4.29448 -6.19025,-5.35379 -20.43707,-4.36598 -6.72375,0.46619 -23.50427,0.61005 -56.30453,0.48269 -43.66875,-0.16956 -46.84197,-0.11884 -48.49689,0.77513 -3.01009,1.62605 -4.59239,5.73769 -5.61736,14.59665 -0.33036,2.85549 -1.92271,11.217 -3.53861,18.58115 -4.60769,20.99891 -6.82086,35.91979 -6.82988,46.04579 l -0.005,5.33124 43.58372,-0.057 c 42.02557,-0.055 46.94613,0.0838 58.88583,1.66096 5.92825,0.78309 16.23456,0.64637 19.27203,-0.25566 z m -236.89996,-0.58077 c 9.31939,-0.73074 16.65376,-0.80704 46.84535,-0.48734 19.68782,0.20848 39.36197,0.40999 43.72034,0.44779 12.69442,0.11012 14.31677,-1.14914 16.13794,-12.52582 0.47743,-2.98246 1.44906,-8.12784 2.15919,-11.4342 1.71886,-8.00303 4.89717,-25.55492 6.28409,-34.70301 0.6152,-4.0578 1.60721,-9.49863 2.20454,-12.09075 1.21073,-5.25436 1.40747,-10.6519 0.46371,-12.72314 -0.34222,-0.75111 -1.51037,-1.80787 -2.5959,-2.34836 -1.7522,-0.87246 -3.16928,-0.95621 -12.63047,-0.74641 -14.28628,0.3168 -84.99758,0.34039 -95.63824,0.0319 -10.2972,-0.29852 -13.39523,0.30004 -15.81454,3.05548 -1.95857,2.2307 -2.54775,4.25604 -3.32556,11.43192 -0.3258,3.00577 -2.17159,13.45767 -4.10174,23.22643 -1.93016,9.76877 -3.89721,20.22066 -4.37123,23.22643 -0.47402,3.00578 -1.21065,6.98574 -1.63697,8.84435 -2.99054,13.03805 -2.1364,15.87493 5.15082,17.10759 3.82581,0.64714 5.23263,0.62147 17.14867,-0.31286 z"
       id="path1141"
       transform="matrix(0.26458333,0,0,0.26458333,-36.964292,63.457985)" />
  </g>
</svg>
