<?xml version="1.0" encoding="UTF-8" standalone="no"?>
<!-- Created with Inkscape (http://www.inkscape.org/) -->

<svg
   width="264.2168mm"
   height="124.10251mm"
   viewBox="0 0 264.2168 124.10251"
   version="1.1"
   id="svg418"
   inkscape:version="1.2.2 (732a01da63, 2022-12-09)"
   xmlns:inkscape="http://www.inkscape.org/namespaces/inkscape"
   xmlns:sodipodi="http://sodipodi.sourceforge.net/DTD/sodipodi-0.dtd"
   xmlns="http://www.w3.org/2000/svg"
   xmlns:svg="http://www.w3.org/2000/svg">
  <sodipodi:namedview
     id="namedview420"
     pagecolor="#ffffff"
     bordercolor="#000000"
     borderopacity="0.25"
     inkscape:showpageshadow="2"
     inkscape:pageopacity="0.0"
     inkscape:pagecheckerboard="0"
     inkscape:deskcolor="#d1d1d1"
     inkscape:document-units="mm"
     showgrid="false"
     inkscape:zoom="10.35098"
     inkscape:cx="552.94282"
     inkscape:cy="342.57626"
     inkscape:window-width="3440"
     inkscape:window-height="1351"
     inkscape:window-x="2391"
     inkscape:window-y="-9"
     inkscape:window-maximized="1"
     inkscape:current-layer="layer1" />
  <defs
     id="defs415" />
  <g
     inkscape:label="Layer 1"
     inkscape:groupmode="layer"
     id="layer1"
     transform="translate(36.964292,-63.457985)">
    <path
       id="path171"
       style="fill:#000000;stroke:none;stroke-width:0.264583"
       d="m 195.08149,63.458502 c -1.69384,0.01167 -3.4054,0.172765 -4.68292,0.318327 -2.51558,0.286626 -3.96717,2.919585 -6.10867,3.276285 -4.51128,0.751398 -9.91116,-0.246163 -14.52883,-0.131258 -2.21952,0.05524 -5.15541,1.114133 -5.82083,3.435449 -1.20328,-1.14813 -2.10929,-2.304904 -3.70417,-2.982246 -3.74905,-1.592222 -8.35878,0.164151 -12.17083,0.02636 -2.4767,-0.08951 -6.07383,0.0208 -8.46667,-0.567408 -1.54033,-0.378661 -2.66012,-1.833105 -4.23333,-2.303218 -2.41981,-0.723091 -5.69178,-0.359623 -8.20208,-0.248564 -3.4458,0.152452 -5.61189,2.933352 -8.99584,3.274736 -1.69353,0.170836 -3.78169,-0.374655 -5.55625,-0.374655 H 95.942324 c -9.526313,0 -19.313294,1.032888 -28.83855,-0.02894 -2.357103,-0.262751 -3.699713,-2.749752 -6.351033,-2.871143 -2.749216,-0.125867 -6.390562,-0.534485 -8.995317,0.428914 -1.510504,0.558633 -3.39179,2.947091 -4.838464,2.936772 -2.381976,-0.01701 -4.877076,-0.465605 -7.332886,-0.465605 -1.961553,0 -4.436534,0.405622 -6.339665,-0.08371 -1.406737,-0.361781 -2.349517,-1.92215 -3.714501,-2.50269 -2.453942,-1.043666 -6.120146,-0.796327 -8.73125,-0.543636 -1.734276,0.167823 -3.328362,0.567799 -4.758366,1.598352 -0.686859,0.495107 -1.353242,1.631429 -2.176095,1.846399 -0.973401,0.254232 -2.585778,-0.314288 -3.648873,-0.31471 -3.1831166,-0.0012 -7.2246028,0.673095 -10.31461567,-0.0832 -1.57874043,-0.38636 -2.61848403,-2.058528 -4.23746743,-2.565218 -3.3296457,-1.042037 -9.7438129,-0.831446 -12.6989669,1.058334 -1.138342,0.727901 -1.639023,1.856256 -2.542997,2.791561 -0.966125,0.999596 -2.142704,1.557921 -2.927986,2.768306 -1.916138,2.953548 -2.789502,8.712314 -2.075843,12.1698 0.272786,1.321585 1.558553,2.364801 1.578715,3.704166 0.06099,4.017329 -1.590236,8.469175 -2.230871,12.435417 -0.33864,2.096488 -0.330561,5.238308 -1.374077,7.098788 -1.462615,2.60819 -5.185095,4.43999 -7.350972,6.43992 -2.591062,2.39229 -3.885249,6.10324 -2.341459,9.48004 1.526273,3.33843 4.475188,5.39356 7.083288,7.72873 2.559736,2.29175 4.867719,4.95041 8.741586,4.01939 4.128633,-0.99244 7.715729,-5.13224 10.8479162,-7.81399 2.8777901,-2.464 7.0662283,-4.928 7.6729167,-8.96121 3.4926825,2.64391 12.6297571,4.33776 16.1395831,0.79375 h 0.264584 l 1.852083,0.79375 c -1.489802,2.44441 -4.823232,2.45435 -5.927287,5.82083 -1.0310939,3.14345 -2.281247,8.52204 -0.8583454,11.64167 1.0093374,2.21344 3.1929714,3.26211 3.6829794,5.82083 0.217223,1.13425 -0.321088,2.56599 -0.489893,3.70417 -0.440001,2.96989 -0.667954,6.42627 -1.638659,9.26042 -1.9411704,5.6667 -11.23263383,6.5436 -10.88047318,13.75833 0.12779287,2.61984 1.91685378,4.65459 3.46387128,6.61458 2.3242826,2.94474 4.5129854,5.77408 7.0915569,8.46667 4.186696,0.3945 6.071264,0.35916 9.525,-2.43344 1.185596,-0.95857 4.469431,-4.85957 6.040458,-4.55373 1.109133,0.2159 1.989812,2.1853 2.595707,3.01842 1.82979,2.51692 3.651169,5.82408 6.709668,6.95565 4.545736,1.6822 7.993676,-1.74687 11.1125,-4.53048 5.58601,-4.98593 11.466315,-8.2298 12.435417,-16.1835 h 0.264583 c 0.760941,2.46928 2.161942,4.11674 3.73879,6.09575 3.496929,4.38855 8.685984,14.15676 15.575794,11.81633 5.888693,-2.00047 9.760881,-8.75175 15.08125,-11.82667 0.750093,1.93668 2.420033,3.66479 3.700549,5.29064 2.725673,3.46036 5.424533,7.9957 10.586953,6.63577 3.86945,-1.01939 7.36053,-5.19819 10.31875,-7.76749 3.97555,-3.45275 8.41877,-6.31197 8.46666,-12.09642 h 0.26459 c 1.388,2.78996 3.58889,6.42654 6.61458,7.61659 3.71257,1.46048 9.78205,0.32091 13.75833,0.32091 h 42.33334 12.7 c 2.94712,0 5.94865,-0.23073 7.77368,-2.9347 2.70424,-4.00698 1.30437,-8.86633 2.28307,-13.20488 0.30638,-1.35832 1.18668,-2.56594 1.48931,-3.96875 0.96148,-4.45414 1.36729,-9.03614 2.30787,-13.49375 0.57785,-2.7381 1.59697,-5.91563 1.17099,-8.73125 -0.54079,-3.57494 -5.17006,-9.85018 -8.93951,-10.05417 l 0.26459,-0.79375 c 1.2303,0.29289 2.44482,0.27121 3.70416,0.26459 9.47161,-0.0492 8.73235,-9.76301 9.41597,-16.40417 0.14685,-1.42604 1.28719,-2.78158 1.60093,-4.233335 0.69241,-3.202708 0.5026,-6.392416 0.95292,-9.525 0.61987,-4.31191 3.89746,-8.954624 2.15387,-13.49375 -0.65828,-1.713347 -1.92614,-2.981669 -3.27577,-4.187341 -1.72608,-1.542032 -3.57748,-3.639474 -5.82083,-4.385262 -4.37845,-1.455565 -9.36383,0.599724 -13.7542,-0.506946 -1.59672,-0.40242 -2.6328,-2.197692 -4.23747,-2.797762 -1.20725,-0.451497 -2.88363,-0.589408 -4.5775,-0.577742 z m -0.97358,3.004468 c 3.20993,0.07459 6.54098,1.290091 7.13858,3.894335 3.44797,-1.019203 8.04663,-0.264583 11.64167,-0.264583 1.57851,0 3.35504,-0.133052 4.71392,0.831991 3.47391,2.467096 1.23199,11.738591 -2.06809,13.455509 2.01449,3.479102 1.68057,12.197352 -2.91042,13.758333 2.84315,3.005855 2.10522,11.527315 -1.85208,13.606925 -1.84197,0.96833 -4.84747,0.41599 -6.87917,0.41599 h -15.61041 c -2.36108,0 -5.34391,0.57938 -6.93085,-1.59887 -1.09506,-1.50331 -0.77916,-3.55152 -0.5519,-5.28029 0.49476,-3.76252 1.63043,-7.56796 1.66191,-11.377088 h -0.26458 c -0.86886,3.665196 -4.92185,6.106138 -7.67292,8.278048 -3.66807,2.89632 -7.47272,7.76918 -11.90625,9.38392 -2.98413,1.08686 -6.66809,0.59428 -9.78958,0.59428 -2.88599,0 -9.22999,1.18237 -10.84792,-1.85208 -2.83412,1.70629 -8.96442,2.90983 -11.90625,0.79375 -1.99912,3.84325 -7.53276,7.14013 -10.84791,9.89914 -1.32232,1.1004 -2.74743,2.60123 -4.49792,2.96106 -3.42886,0.70484 -7.65949,-4.17162 -7.91269,-7.30395 -0.14949,-1.84939 0.60947,-2.89879 1.29811,-4.49792 -3.24106,0.77177 -8.697928,0.89633 -9.648509,-3.175 -0.537898,-2.30367 0.594159,-5.11393 0.907955,-7.40833 0.108479,-0.79137 0.750904,-2.070019 0.109554,-2.750738 -0.652462,-0.692144 -2.158977,-0.424264 -3.010669,-0.424263 -0.679383,0 -1.447941,-0.0896 -2.111499,0.08423 -1.512572,0.396343 -1.686637,2.833639 -1.866553,4.149099 -0.467518,3.4157 -0.573313,8.38366 -2.374015,11.37709 -2.327207,3.86838 -7.494665,6.87417 -10.869621,9.8149 -1.468684,1.27979 -2.966337,2.87017 -5.003312,3.09955 -3.855901,0.43418 -8.709627,-5.78798 -7.469312,-9.47487 0.751136,-2.23381 3.154555,-3.28668 4.558895,-5.02708 -6.200041,1.47609 -13.996333,0.26458 -20.372916,0.26458 -2.536757,0 -5.329908,0.28439 -6.940145,-2.1177 -1.222852,-1.82429 -0.332215,-4.8888 0.128674,-6.87813 0.974988,-4.207544 1.625778,-8.69062 2.24224,-12.964588 0.283104,-1.962763 2.066732,-6.981565 -1.516186,-6.085417 1.994113,3.751432 1.798037,11.625857 -2.645833,13.758334 v 0.529166 c 3.244251,1.792535 1.082437,10.846865 -1.368909,12.702065 -1.975591,1.49541 -5.041205,1.05627 -7.362341,1.05627 H 19.477741 c -2.242276,0 -5.020813,0.35848 -7.143233,-0.5302 -2.047857,-0.85778 -2.3762111,-2.78695 -2.3817671,-4.76147 H 9.6881575 c -0.3720006,1.55839 -0.2663047,3.18172 -1.6371093,4.28656 -2.5640215,2.06691 -11.4804241,2.00177 -12.7289388,-1.64486 -0.7757573,-2.26609 0.2434708,-4.90581 0.6040975,-7.13961 0.928687,-5.75164 2.7941781,-11.918577 2.914034,-17.727088 -0.8606352,0.204914 -2.535627,-0.05431 -3.2029053,0.499711 -0.9058791,0.751766 -0.9824931,3.416257 -1.1425659,4.527372 -0.5711824,3.962034 -1.328763,7.963029 -2.0494873,11.906255 -0.6831533,3.73821 -0.915811,8.43032 -2.4768514,11.90211 -0.706886,1.5721 -2.312579,2.61133 -3.563607,3.72174 -3.176267,2.81933 -7.348621,7.74238 -11.377083,9.17825 -3.740173,1.33292 -9.597517,-4.31339 -8.869226,-8.13335 1.036954,-5.43917 8.931393,-6.61737 10.532173,-11.64167 1.380595,-4.33321 1.508842,-9.256334 2.373499,-13.713376 0.448628,-2.312402 1.490225,-5.087205 1.405082,-7.449158 -0.05845,-1.620531 -2.013159,-2.713171 -2.206067,-4.502051 -0.228467,-2.118727 0.705032,-6.976442 1.964738,-8.720397 0.699188,-0.967956 1.817069,-1.376099 2.60656,-2.227771 1.459386,-1.574256 2.058418,-2.800479 4.364074,-3.216342 2.152066,-0.388158 5.6528779,-0.557363 7.6729169,0.354501 1.6097224,0.726579 2.0851706,2.610298 3.9692667,2.692342 3.4254246,0.149196 6.8893697,0.0052 10.3182333,0.0052 2.0123661,0 3.8997621,-0.07611 5.2916671,1.5875 h 0.264583 c 1.115747,-1.33156 2.480193,-3.338861 3.969267,-4.230749 1.848311,-1.107147 7.535917,-1.079188 9.523449,-0.264583 1.327876,0.544286 1.629521,1.939146 2.747119,2.636014 1.024415,0.638979 2.969512,0.271818 4.133082,0.271818 3.129157,0 10.479419,-1.367132 12.435416,1.5875 1.953152,-1.166015 2.941177,-3.430753 5.027084,-4.208528 2.358178,-0.879293 6.966104,-1.201011 9.256799,-0.02481 1.135326,0.582887 1.597467,2.009678 2.705261,2.486153 1.708362,0.734941 4.710991,0.15968 6.558773,0.15968 3.426548,0 10.449523,-1.345126 12.964583,1.322917 h 0.264584 c 2.51506,-2.668043 9.538099,-1.322917 12.964583,-1.322917 5.643949,0 11.289389,-0.02715 16.933329,5.17e-4 1.25306,0.0061 2.54087,0.763689 3.70417,0.675928 1.07739,-0.08128 3.80185,-0.44427 4.73821,-0.948263 1.04662,-0.563573 1.54528,-1.717836 2.67426,-2.233972 2.24572,-1.026821 6.35997,-1.144683 8.72711,-0.460437 1.53935,0.444938 1.99914,1.688325 3.24373,2.429826 2.78944,1.661988 8.47156,-1.654767 10.51461,1.594735 3.2699,-1.793089 11.3931,-3.419345 13.33562,1.05885 0.92098,2.12312 -0.089,4.220621 -0.38034,6.349483 -0.55218,4.038549 -1.45918,8.018084 -2.07274,12.058696 -0.30559,2.01422 -0.39976,4.669382 -1.35754,6.462137 2.64841,-0.216693 3.9359,-1.777545 5.82496,-3.439066 3.60645,-3.172537 5.45294,-4.451726 6.34587,-9.260934 -5.52778,-0.01524 -5.48657,-4.184735 -4.61057,-8.466666 0.38311,-1.871482 0.43938,-3.593391 1.97921,-4.967656 1.42978,-1.276024 3.22725,-1.117761 5.01261,-1.117761 3.47707,0 7.12401,-0.317069 10.58333,0.02791 1.00275,0.100051 1.92172,0.946322 2.90939,0.869198 1.75784,-0.137235 2.29762,-2.648742 3.70675,-3.482475 1.22235,-0.723285 3.10472,-1.089138 5.0307,-1.04438 z m -11.64684,27.442252 h 0.26459 l 0.26458,-1.058333 h -0.52917 z m 13.00024,-24.49928 c -1.10242,0.01187 -2.23594,0.172083 -2.94607,0.270268 -2.29811,0.317704 -2.1057,1.518249 -3.60081,2.914551 -0.61621,0.575613 -1.49351,0.737605 -2.06499,1.387512 -1.07365,1.221099 -1.8291,5.371685 -1.64125,6.957715 0.19579,1.653652 2.2875,1.796087 2.26395,3.708817 -0.0458,3.697271 -1.14265,8.030738 -1.95544,11.641667 -0.66593,2.957969 -1.16595,5.988388 -1.58026,8.995838 -0.13335,0.9681 -0.67438,2.71314 -0.10077,3.58944 0.83129,1.27047 4.68044,0.90847 6.03374,0.90847 h 12.96458 c 1.94994,0 4.47815,0.42244 6.34897,-0.1726 1.96525,-0.62468 3.9373,-7.25594 2.22312,-8.79946 -0.91358,-0.822852 -2.68645,-0.55294 -3.80959,-0.55294 h -9.525 c -1.51364,0 -4.50527,0.0193 -3.28662,-2.380731 1.73535,-3.417824 10.28336,-1.852601 13.60537,-1.8526 1.73273,0 4.04569,0.36331 4.87826,-1.591634 0.60775,-1.427656 1.90545,-6.328091 0.56327,-7.472412 -0.78185,-0.666757 -2.11096,-0.460901 -3.06028,-0.460954 h -7.67292 c -1.36837,0 -6.24843,0.748073 -6.03994,-1.588534 0.22039,-2.470722 2.87638,-2.6448 4.71703,-2.6448 h 9.525 c 1.22608,0 2.92251,0.305451 3.89485,-0.613399 1.08605,-1.025894 2.42451,-7.366593 1.01751,-8.334892 -1.03876,-0.714937 -3.17908,-0.312125 -4.3832,-0.312125 -3.45507,0 -7.45047,0.559945 -10.84791,-0.06046 -1.86842,-0.341167 -1.58955,-1.931907 -2.76004,-2.918168 -0.58629,-0.494149 -1.65813,-0.63044 -2.76056,-0.618567 z M 24.410773,69.828139 c -1.184589,0.02283 -2.391788,0.14319 -3.080432,0.212907 -1.766885,0.178853 -1.81894,1.498678 -2.814815,2.625162 -1.255661,1.420303 -2.64753,1.445596 -3.093352,3.556889 -0.304006,1.440062 -1.073327,4.324163 -0.466638,5.703528 0.551341,1.253382 2.013822,1.322624 1.959054,2.982764 -0.175403,5.29735 -1.67949,11.485694 -2.847888,16.668751 -0.410633,1.8208 -1.822354,5.59475 -1.007174,7.34787 0.711464,1.52923 4.500581,0.85421 5.889046,0.85421 h 13.758334 c 1.786729,0 4.402692,0.53796 6.084383,-0.0191 1.760734,-0.58287 3.6664,-7.47992 1.980757,-8.70489 -0.875455,-0.63658 -2.802314,-0.27182 -3.831807,-0.27182 -3.172004,0 -6.354038,0.074 -9.525,-0.004 -1.576056,-0.0386 -4.350501,-0.39494 -3.231844,-2.641181 1.854397,-3.723939 10.043148,-2.117183 13.550594,-2.117183 1.66264,0 4.034739,0.480808 4.912362,-1.328085 0.624151,-1.286144 2.000761,-6.434595 0.560172,-7.395931 -0.785547,-0.524231 -2.194612,-0.271818 -3.091284,-0.271818 h -7.9375 c -1.595105,0 -5.935017,0.751955 -5.748486,-1.853117 0.189176,-2.641029 2.697644,-2.644667 4.690153,-2.644799 h 9.525 c 1.123154,0 2.914374,0.326161 3.836975,-0.460954 1.200611,-1.024439 2.600162,-7.427293 1.106392,-8.450647 -1.078705,-0.73896 -3.168809,-0.348816 -4.414201,-0.348816 -3.527024,0 -7.643766,0.591085 -11.108366,-0.06046 -1.765811,-0.332066 -1.358978,-2.282918 -2.709395,-3.006534 -0.598304,-0.320694 -1.760419,-0.39542 -2.94504,-0.372587 z m -33.3126952,0.06408 c -1.2801848,-0.0043 -2.5876068,0.156144 -3.3698198,0.328145 -1.498493,0.329451 -1.656452,1.43699 -2.571936,2.445845 -0.661432,0.728939 -1.68764,0.953574 -2.319755,1.716692 -1.058941,1.278405 -1.333573,4.394706 -1.434538,6.028572 -0.140864,2.279694 2.179248,1.876508 2.270662,3.709334 0.24802,4.971338 -1.842965,10.737579 -2.759004,15.605249 -0.562848,2.990515 -0.533334,6.395585 -1.60352,9.260415 -1.596442,4.274 -7.868975,5.55968 -9.830408,9.52914 -0.936016,1.89409 2.507023,6.16787 4.489649,5.97896 2.137116,-0.20373 4.772847,-3.46937 6.35,-4.81314 2.286077,-1.94758 5.736693,-3.98259 7.347871,-6.53707 1.071324,-1.69914 1.199196,-4.82708 1.495,-6.80372 0.659341,-4.40307 1.3738043,-8.896216 2.3776323,-13.229168 0.5939364,-2.564009 0.2383149,-8.206627 2.5729696,-9.857796 1.5866524,-1.122224 7.864896,-1.169478 7.9530029,1.391646 0.07779,2.255301 -0.8497138,4.980829 -1.30844728,7.188192 -0.63314737,3.045008 -0.84070625,6.171497 -1.48311361,9.215456 -0.48233551,2.28488 -1.42295011,5.05997 -1.21181231,7.39697 0.2005538,2.2219 6.8371188,2.26722 8.3467773,1.28726 1.6136914,-1.04748 1.6516956,-6.09556 1.9223633,-7.89048 1.028435,-6.814155 2.4938058,-13.567665 3.5894448,-20.372915 0.299987,-1.863385 1.856054,-5.835194 0.670244,-7.558195 -0.916781,-1.332009 -4.9092552,-0.643888 -6.3427658,-0.643888 -2.7844192,0 -7.18361724,0.842111 -9.7844157,-0.15968 -1.2175588,-0.469014 -1.1920056,-1.851202 -2.1605916,-2.554366 -0.6723053,-0.487999 -1.9252774,-0.657162 -3.2054891,-0.661458 z M 130.49422,70.075152 c -1.55859,0.0029 -3.12766,0.178031 -3.80494,0.478524 -0.99932,0.443296 -1.49016,1.651462 -2.43757,2.222603 -1.2401,0.747746 -2.7397,0.102612 -3.95222,0.763261 -1.45335,0.791718 -2.69621,6.442517 -1.8588,7.890991 1.07599,1.861853 4.65995,-0.302995 5.05602,2.424659 0.40349,2.778499 -0.8968,6.551251 -1.50585,9.256282 -0.89345,3.969151 -0.82366,8.303218 -2.12958,12.171348 -1.56395,4.6314 -7.84765,5.83129 -9.88725,10.05365 -0.91043,1.88535 2.69902,6.5108 4.75371,5.87871 2.04095,-0.62812 3.95718,-3.05226 5.55625,-4.39973 2.40951,-2.03013 6.26859,-4.3074 7.8574,-7.059 1.09955,-1.90468 1.14356,-4.96925 1.47588,-7.11998 0.61672,-3.993492 1.53822,-7.938395 2.26343,-11.906248 0.40905,-2.236865 0.33215,-5.039938 1.25264,-7.131864 1.73135,-3.934701 9.98431,0.9686 12.284,-2.189014 0.61674,-0.846778 0.61751,-2.113542 0.76171,-3.114539 0.1905,-1.320926 0.99281,-3.130341 0.40411,-4.437455 -0.45747,-1.01566 -1.83527,-0.852678 -2.75125,-0.854211 -2.25154,-0.0038 -5.23282,0.515375 -7.39387,-0.151412 -1.18082,-0.364293 -1.23993,-1.637016 -2.2009,-2.222603 -0.63605,-0.387696 -2.18439,-0.556889 -3.74292,-0.553972 z m -73.463216,0.0098 c -1.315075,0.01369 -2.616857,0.144142 -3.35225,0.465088 -0.971763,0.424143 -1.080158,1.597359 -1.791622,2.272212 -0.694266,0.658348 -1.735848,0.841224 -2.352311,1.604554 -1.282913,1.58849 -1.561968,6.158447 -1.217497,8.101314 2.929662,0.825188 1.839015,3.34788 1.547709,5.55625 -0.691604,5.241787 -2.028284,10.36281 -2.68149,15.610421 -0.165893,1.33322 -1.550279,4.73338 -0.294039,5.77742 1.599339,1.32868 4.86853,0.31719 6.719487,0.30851 5.249196,-0.0254 10.638769,-0.33562 15.875,0.0233 1.911612,0.1307 5.179873,0.96665 6.799585,-0.4377 0.953293,-0.82682 1.079145,-2.39146 1.249536,-3.55482 0.401373,-2.74182 0.897739,-5.47509 1.410767,-8.202081 0.413542,-2.197829 2.422407,-8.012305 1.116211,-9.969934 -0.920485,-1.379715 -5.633154,-0.6134 -7.136516,-0.6134 h -7.14375 c -0.870147,0 -2.268745,-0.255906 -3.023071,0.271819 -1.247972,0.872993 -1.752071,5.665302 -1.686719,7.132381 0.184943,4.137956 9.443069,-0.581785 8.449097,4.237467 -0.681566,3.304038 -6.230163,2.120898 -8.76639,2.116668 -1.223631,-0.002 -2.790502,0.0286 -3.343465,-1.334287 -0.653206,-1.610193 0.615367,-4.686352 0.917256,-6.338631 0.473075,-2.587822 0.314728,-7.435012 2.011764,-9.496061 1.309355,-1.590634 3.875791,-1.087272 5.706112,-1.087272 4.451808,0 9.648126,0.747846 14.021883,-0.06046 2.086172,-0.385538 3.672312,-6.936893 2.415873,-8.586556 -0.745331,-0.97889 -2.664343,-0.613399 -3.737756,-0.613399 H 67.896491 c -1.431593,0 -3.710105,0.424177 -4.991943,-0.311609 C 61.786419,72.31417 61.866701,70.57876 60.463353,70.319582 59.674697,70.173946 58.346017,70.07128 57.031004,70.084971 Z m 98.219326,2.59674 c -1.38132,0.02489 -2.80322,0.187675 -3.47989,0.273369 -2.75716,0.34911 -2.3615,4.547705 -2.81843,6.587195 -1.60094,7.14322 -2.78741,14.530363 -3.8685,21.771285 -0.31036,2.07823 -2.47817,7.35376 0.60203,7.99744 3.48,0.72733 7.34156,0.10383 10.84637,-0.0496 1.80523,-0.0789 3.81243,0.38307 5.55625,-0.24288 2.7074,-0.97181 4.98692,-3.84583 7.14375,-5.6534 3.84271,-3.22071 8.98507,-6.012238 11.06651,-10.782805 0.89927,-2.061579 0.9037,-4.182271 1.21749,-6.35 0.46142,-3.186452 1.35004,-6.324632 1.726,-9.525 0.11905,-1.015287 0.74923,-2.460726 -0.14212,-3.279903 -1.0329,-0.949091 -3.82485,-0.424263 -5.13663,-0.424263 -4.56844,0 -9.52994,-1.432823 -10.26811,4.23385 -0.14843,1.140193 -0.86702,3.672779 0.29817,4.450374 1.35226,0.902335 4.22074,-0.50442 4.55993,1.900659 0.86147,6.105473 -3.67905,9.13269 -7.55458,12.722221 -2.1875,2.026116 -4.87347,4.529397 -8.20105,3.836977 -3.24186,-0.674679 -1.3044,-6.194694 -0.75809,-8.358665 1.13187,-4.483036 1.47211,-9.212512 2.32751,-13.758333 0.22886,-1.214833 1.2636,-3.760639 0.12247,-4.792989 -0.51632,-0.466994 -1.85769,-0.580415 -3.23908,-0.555522 z m -66.044029,0.351917 c -0.967915,0.01974 -1.856185,0.147208 -2.474267,0.505912 -1.446211,0.839259 -2.761165,7.695688 -1.034562,8.527645 1.642746,0.791771 4.736824,0.19637 6.540686,0.19637 h 15.345832 c 1.84124,0 5.45902,0.690792 7.0528,-0.311608 1.25942,-0.792041 2.67314,-7.780318 1.07539,-8.524545 -1.63618,-0.762222 -4.74787,-0.15968 -6.54069,-0.15968 H 93.825658 c -0.937749,0 -2.298932,-0.171143 -3.63182,-0.222725 -0.333218,-0.0129 -0.664898,-0.01795 -0.987537,-0.01137 z m 52.508939,1.557011 2.91042,0.264583 -0.26459,2.645833 h -2.91041 z m -26.72292,10.054166 v 0.529167 c 2.23012,1.866005 1.24464,4.172542 0.84543,6.614583 -0.88053,5.387836 -2.6819,11.216355 -2.69751,16.668755 h 0.26458 l 3.48248,-3.70417 0.87023,-4.49792 2.79104,-15.345831 z m 26.07852,1.739946 c -0.83629,0.002 -1.70497,0.112138 -2.26602,0.112138 -0.91512,0 -2.03177,-0.156783 -2.89853,0.19637 -2.22349,0.906018 -1.86523,5.013853 -2.26394,6.94738 -0.71829,3.483691 -1.00236,7.155731 -1.90324,10.583331 -0.31348,1.193 -1.09416,3.32922 -0.18294,4.41369 0.90747,1.07976 3.34691,0.6134 4.60282,0.6134 0.89773,0 2.04558,0.17919 2.89595,-0.15968 2.01262,-0.80221 2.18918,-5.9057 2.43603,-7.77782 0.46826,-3.548469 1.31223,-7.049654 1.84536,-10.583338 0.1561,-1.036082 0.65894,-2.957296 -0.19275,-3.80907 -0.4322,-0.432135 -1.23654,-0.538379 -2.07274,-0.536401 z m -30.26327,0.113688 c -0.34003,-0.0059 -0.691,0.0011 -1.04438,0.01602 -1.41347,0.05969 -2.86195,0.247013 -3.7667,0.247013 H 91.444408 c -2.089875,0 -4.858455,-0.475106 -6.863664,0.151412 -2.038861,0.636939 -1.693061,4.2677 -2.063957,5.934005 -0.855926,3.844581 -1.393007,7.778351 -2.119767,11.641671 -0.396345,2.10601 -0.363018,4.04846 -1.832446,5.77587 -2.197346,2.58385 -7.839629,4.9443 -8.8191,8.24756 -0.540758,1.82344 2.796639,6.14056 4.7656,5.67252 1.572683,-0.37358 3.041189,-2.16449 4.233334,-3.18017 3.357757,-2.8606 9.173671,-6.1104 9.976135,-10.70529 l 1.866036,-10.572995 c 0.202091,-1.153524 0.430952,-3.046016 1.667598,-3.544486 1.116011,-0.449789 2.76773,-0.159681 3.952731,-0.15968 1.633271,0 4.959602,-0.627444 6.306072,0.424263 0.98605,0.770412 0.37459,2.239883 0.2341,3.279903 -0.34236,2.534905 -1.75496,5.926065 -1.31258,8.461495 0.37619,2.15629 6.97277,2.26287 8.44703,1.28106 1.01672,-0.67706 0.898,-3.08724 1.17925,-4.1863 1.10776,-4.33269 1.279,-8.899131 2.38125,-13.229171 0.30269,-1.189804 1.1559,-4.167917 -0.12092,-5.019849 -0.57398,-0.383024 -1.49347,-0.517019 -2.51354,-0.534851 z m 67.15559,24.604701 6.61458,6.51433 3.43958,2.21692 h -21.96041 l 3.96875,-2.2841 z m -0.5209,1.57045 -0.008,0.017 h 0.0176 v -5.2e-4 c -5.3e-4,-0.003 -5.6e-4,-0.005 -0.001,-0.008 l -0.008,-0.008 z m -77.966818,2.18488 c 1.429488,0.0774 3.854808,3.96021 4.139798,4.97592 -1.41042,-0.26088 -3.48268,0.22451 -4.722192,-0.53537 -0.955939,-0.586 -0.809152,-4.00229 0.311093,-4.40335 0.08552,-0.0306 0.176002,-0.0424 0.271301,-0.0372 z m -51.951868,3.12384 2.116667,1.85208 -4.233333,0.26458 v -1.05833 z m 97.974896,0.49454 c 1.00227,-0.0112 2.1103,0.29762 2.83135,0.56379 v 0.52917 l -5.02708,0.26458 c 0.29686,-1.01489 1.19347,-1.3463 2.19573,-1.35754 z m 39.07927,0.29921 0.26458,0.26458 z m -47.38264,0.25528 c 0.74788,2.4e-4 1.41156,0.0891 1.87431,0.80305 -1.11304,0.0847 -2.20557,0.45427 -2.64584,-0.79375 0.26373,2e-4 0.52224,-0.009 0.77153,-0.009 z m -123.273609,0.27388 v 0.0103 c 0.0039,-0.003 0.0079,-0.007 0.01189,-0.0103 z m -0.529167,0.52917 -0.79375,0.79375 z m 16.005225,0.13797 c 1.942785,0.0131 3.780989,0.4215 4.103109,2.50786 h 22.754166 c 4.209451,0 7.449941,-0.89258 9.789584,3.175 -3.595288,1.06281 -8.420964,0.26459 -12.170834,0.26459 -2.089611,0 -6.587399,-0.85239 -8.375716,0.27181 -1.259349,0.79185 -2.683254,7.50306 -1.329118,8.41241 1.430535,0.96066 4.854295,0.31161 6.529834,0.31161 h 16.933334 c 1.831708,0 5.934142,0.83125 6.614583,-1.32292 1.178718,0.23468 2.05836,0.97354 3.179134,1.24024 1.162248,0.27649 3.453706,-0.48205 4.220931,0.69608 0.892703,1.37027 -0.461148,4.50422 -0.673344,6.00118 -0.805639,5.68497 -0.998372,14.33445 -4.507735,19.04897 -2.221109,2.98412 -6.778155,4.56707 -8.60826,7.7494 -0.797932,1.38769 2.878057,5.57149 4.272607,5.77019 0.905139,0.12912 1.764523,-0.81989 2.38125,-1.34772 1.664493,-1.4242 3.36795,-2.80276 5.027084,-4.23334 2.331456,-2.01024 6.052476,-4.13842 7.152018,-7.14375 2.214774,-6.05379 2.042282,-13.29096 3.499011,-19.57916 0.432594,-1.86632 0.26005,-4.41985 1.481563,-6.01152 2.279053,-2.9696 8.84299,0.79584 11.64115,-1.29191 1.43266,-1.06917 1.48464,-5.03411 1.74976,-6.71949 0.51567,-3.28077 -6.572509,-2.11588 -8.590169,-2.11667 -0.85295,-2.7e-4 -2.342737,0.22209 -2.685108,-0.83199 -0.783644,-2.41399 2.732272,-2.44136 4.008025,-2.35696 2.633602,0.17436 5.982562,-0.65272 8.466662,0.3545 1.30254,0.52809 2.12018,1.69732 3.175,2.56987 v 0.26458 c -2.30233,0.85485 -4.23235,5.92371 -3.26905,8.42739 0.78024,2.02828 4.68927,-0.40528 5.30045,1.68724 0.55425,1.89781 -0.56921,4.66002 -0.88883,6.55516 -0.91089,5.40238 -0.82534,13.80505 -4.29793,18.23144 -2.12718,2.71164 -7.476626,4.78059 -8.707994,7.97161 -0.518568,1.34433 3.060924,5.64302 4.455544,5.61154 1.99066,-0.0447 5.3817,-4.0097 6.87865,-5.28546 2.29653,-1.95737 6.0766,-4.12531 7.33443,-6.951 1.01514,-2.27984 1.00646,-5.23088 1.40095,-7.67292 0.6141,-3.80432 1.51594,-7.58144 2.17661,-11.37708 0.35586,-2.04331 0.31793,-5.09462 1.52549,-6.84403 1.51652,-2.19624 6.93831,-0.94726 9.25732,-1.06712 1.31095,-0.068 2.60438,0.18802 3.11609,-1.35444 0.46275,-1.39614 1.9563,-6.65156 0.50539,-7.6202 -1.47372,-0.98397 -4.08268,-0.0322 -5.73712,-0.31213 2.57935,-3.50455 4.4522,-2.60047 8.04964,-2.75022 3.37972,-0.14049 6.77008,-0.42478 10.20661,-0.42478 8.58315,0 17.19868,0.27669 25.66459,0.60927 1.04614,0.0413 2.09051,-0.57682 3.175,-0.60513 5.19548,-0.13599 10.41282,-0.004 15.61041,-0.004 h 11.64167 c 1.9264,0 4.11177,-0.29841 5.81722,0.79272 2.07612,1.32815 1.71189,3.95927 1.39836,6.08645 -0.78024,5.29735 -1.79194,10.61416 -2.78226,15.875 -0.39209,2.08378 -0.7911,4.63523 -3.1104,5.29166 1.66447,3.61756 2.07608,12.2992 -2.64584,14.21154 -1.79196,0.72575 -4.18521,0.34055 -6.08541,0.34055 h -12.96459 c -4.49144,0 -9.00439,0.12893 -13.49375,-0.004 -0.99769,-0.0296 -1.93755,-0.57177 -2.91041,-0.54002 -6.27866,0.20478 -12.67395,0.54416 -19.05,0.54416 h -10.84792 c -1.64829,0 -3.70523,0.32508 -5.29167,-0.1726 -4.74014,-1.48668 -2.90868,-13.26059 1.32292,-14.1149 -2.718,-4.13109 -0.85401,-8.64567 0,-13.22917 -1.70491,0 -7.72259,-0.91027 -8.53591,0.83302 -0.91435,1.96049 -0.94303,4.96433 -1.27693,7.10448 -0.6334,4.05809 -1.47907,8.12442 -2.23604,12.17083 -0.59664,3.18923 -0.88083,5.81068 -3.29799,8.19795 -2.78043,2.74631 -6.04582,5.03784 -8.9948,7.60264 -1.46096,1.27078 -3.03614,3.04997 -5.02708,3.42408 -3.892675,0.73131 -9.362292,-5.95404 -8.102347,-9.69967 1.290041,-3.83606 6.875307,-5.91985 9.325017,-8.99583 2.92463,-3.67203 2.51668,-10.36937 3.40806,-14.81667 0.37936,-1.89304 1.14883,-4.16408 0.92552,-6.08541 l -3.70417,-0.0522 -10.847912,0.31678 c -0.05159,5.77413 -1.884806,12.3321 -3.079399,17.99167 -0.554831,2.62962 -0.504421,5.85503 -1.902726,8.20208 -1.861556,3.12466 -5.728012,5.51263 -8.511625,7.79539 -2.015527,1.6531 -4.300343,4.57542 -6.879167,5.2834 -2.498922,0.68633 -4.140871,-1.02412 -5.627564,-2.76004 -2.649204,-3.09371 -4.200579,-5.37722 -1.516186,-8.99583 -1.853867,0 -4.447445,0.47427 -6.074565,-0.56845 -3.360403,-2.1539 -1.140951,-10.33245 -0.01085,-13.45447 h -6.35 c -1.77952,4.88089 -0.89995,10.95415 -3.294889,15.61042 -1.242483,2.41583 -4.443097,4.22616 -6.498311,5.94382 -2.87807,2.40526 -8.139005,9.29879 -12.421465,6.73292 -1.187662,-0.71173 -2.109388,-2.07756 -2.951241,-3.15174 -0.765968,-0.97759 -1.799026,-1.96535 -2.177644,-3.175 -1.733747,-5.53786 7.469736,-8.8848 9.990087,-12.7 1.262856,-1.9113 1.129644,-4.69457 1.482597,-6.87917 0.831005,-5.14786 1.108789,-12.02698 3.964616,-16.40417 -2.853182,1.37318 -7.448884,0.52917 -10.583333,0.52917 -0.140494,6.00483 -2.410289,12.02994 -3.133659,17.99167 -0.38019,3.13391 -0.637653,7.39623 -2.979146,9.74462 -3.22917,3.23869 -7.057165,5.95516 -10.555945,8.89196 -1.675538,1.40651 -3.158911,3.09341 -5.5562501,2.73834 -2.1015039,-0.31088 -3.221568,-2.16328 -4.4979167,-3.64784 -0.8703991,-1.01251 -1.9686249,-2.09552 -2.2768636,-3.43958 -1.3093687,-5.71117 7.4375553,-8.27262 10.0190264,-12.18117 1.14829,-1.73906 0.935729,-4.11565 1.349272,-6.07508 0.981074,-4.64886 1.679555,-9.34893 2.550232,-14.02292 -5.596314,0 -5.351598,-3.46301 -4.69067,-7.9375 0.27596,-1.86844 0.333438,-3.94317 1.543575,-5.50044 1.544107,-1.9867 3.46474,-1.16477 5.500956,-1.72754 1.043714,-0.2884 1.463714,-1.49648 2.412773,-1.9849 0.68178,-0.35083 1.564227,-0.42876 2.462899,-0.41909 v -5.2e-4 c 0.898688,0.01 1.813595,0.10697 2.56005,0.10697 0.936401,0 2.139554,-0.13443 3.305225,-0.12661 z m -2.816366,2.51975 c -1.492298,-0.0123 -2.995133,0.16686 -3.724837,0.51676 -1.16729,0.55985 -1.457739,2.03615 -2.596224,2.63912 -1.395361,0.73898 -3.355889,-0.32394 -4.666899,0.54363 -1.098217,0.72649 -2.47678,7.24686 -1.663981,8.26307 1.081351,1.35252 4.904656,-0.281 5.321639,1.55752 0.466195,2.055 -0.828476,5.83028 -1.265039,7.89926 -0.979735,4.64463 -0.995392,9.89269 -2.589506,14.36295 -1.660721,4.65788 -8.1329338,5.81422 -10.1936928,10.00249 -0.8273512,1.6811 3.2158083,6.40723 5.0157148,5.89421 1.935358,-0.55164 3.995036,-3.01939 5.555216,-4.2788 2.485428,-2.00574 6.636442,-4.58565 8.098214,-7.46001 0.904064,-1.77821 0.814524,-3.90824 1.218013,-5.82084 1.055686,-5.00419 1.704894,-10.08288 2.759522,-15.08125 0.366183,-1.73641 0.26482,-3.71012 1.213879,-5.2772 2.563744,-4.23451 11.177407,2.08884 12.675196,-3.45405 0.341576,-1.26334 1.547386,-5.75106 0.60203,-6.71277 -0.602455,-0.61276 -1.975447,-0.42438 -2.755387,-0.42994 -2.199199,-0.0156 -5.002831,0.47701 -7.131865,-0.0853 -1.358353,-0.35878 -1.182031,-1.8249 -2.210201,-2.44688 -0.687585,-0.41619 -2.169543,-0.61973 -3.661792,-0.632 z m 141.203787,3.13107 c -0.37058,-0.005 -0.75594,0.003 -1.14412,0.0207 -1.55271,0.0694 -3.15055,0.27596 -4.02353,0.27596 h -17.4625 c -2.06738,0 -5.45327,-0.64816 -7.3582,0.19637 -1.42637,0.63235 -1.29048,2.99693 -1.48415,4.30154 -0.63183,4.256 -1.78206,8.43636 -2.34456,12.7 -0.14949,1.13478 -1.28601,4.18351 -0.25838,5.01985 1.4115,1.14877 5.97325,0.27182 7.74113,0.27182 h 17.4625 c 2.08647,0 5.44347,0.64249 7.37991,-0.15968 1.43824,-0.5961 1.31,-2.80103 1.58543,-4.07365 0.91809,-4.24274 1.76507,-8.66572 2.33733,-12.96459 0.15558,-1.16703 1.31964,-4.11714 0.17983,-5.01985 -0.52049,-0.41225 -1.49896,-0.55297 -2.61069,-0.56844 z m 35.76526,0.0579 c -1.54855,0.0443 -3.16087,0.23875 -3.89124,0.23875 h -19.05 c -1.56126,0 -5.50595,-0.70637 -6.6828,0.46095 -1.18608,1.17603 -1.00479,4.08463 -1.37097,5.62446 -1.23504,5.19602 -2.52956,11.05893 -2.52956,16.40417 8.00052,0 16.08476,-0.33961 24.07708,0.0103 2.24045,0.0982 7.26338,1.31465 9.14983,-0.24029 0.87785,-0.72364 0.78562,-2.19391 0.99994,-3.20962 0.59133,-2.80108 1.13099,-5.62803 1.52652,-8.46667 0.31908,-2.28938 0.74699,-4.63134 1.28829,-6.87917 0.20929,-0.86937 0.61686,-2.49149 -0.007,-3.2799 -0.47624,-0.60125 -1.96135,-0.7073 -3.50986,-0.66301 z m -11.77706,8.86458 c 1.45862,0.0288 2.83094,0.17483 3.88193,0.52193 2.39997,0.79242 0.24493,3.62354 -1.28778,3.97702 -3.17859,0.73262 -9.33417,1.23405 -12.41939,0.0651 -1.41257,-0.5352 -1.39063,-2.86926 -0.17622,-3.65766 0.75747,-0.49187 2.18721,-0.3567 3.07061,-0.46095 1.46246,-0.17251 3.46521,-0.3847 5.45238,-0.43822 0.4968,-0.0134 0.99226,-0.0168 1.47847,-0.007 z m -42.61601,0.17001 c 0.37431,-0.002 0.75192,0.005 1.13017,0.017 1.513,0.049 3.03579,0.18294 4.39249,0.18294 1.29805,0 2.94976,-0.2708 4.20492,0.0842 2.36134,0.66779 -0.0348,3.53414 -1.2945,3.98684 -2.81376,1.0107 -9.29342,1.1747 -12.15481,0.27543 -1.91923,-0.60299 -1.16228,-3.7666 0.51728,-4.20129 0.98866,-0.25589 2.08154,-0.33976 3.20445,-0.3452 z m -72.794002,2.58124 c 1.473462,7.17688 -1.814779,14.51787 -2.38125,21.69583 h 0.264583 c 2.709529,-6.47549 3.942044,-14.65357 4.497917,-21.69583 z m -5.911268,1.89704 c -1.430666,0.0379 -2.920657,0.21963 -3.613732,0.21963 H 50.698574 c -1.803332,0 -4.988891,-0.60978 -6.598563,0.27181 -1.55436,0.85111 -1.730801,4.73204 -1.911512,6.34277 -0.367769,3.27601 -1.159053,6.54189 -1.723409,9.78958 -0.387614,2.2309 -0.41452,4.65276 -1.701188,6.61459 -1.558328,2.37615 -4.428531,4.38843 -6.63112,6.16344 -0.87152,0.70247 -2.534981,1.59261 -2.965193,2.66702 -0.589227,1.4708 2.936931,5.64333 4.343404,5.88647 1.868999,0.32332 4.514901,-2.87811 5.810498,-3.98167 2.634123,-2.24441 6.7127,-4.56313 8.50439,-7.56026 1.257035,-2.10258 1.333369,-5.55103 1.769401,-7.9375 0.369359,-2.02082 0.314443,-7.91599 2.476335,-8.83616 1.149018,-0.48895 2.953491,-0.15968 4.183207,-0.15968 1.376097,0 5.790564,-0.71079 6.597014,0.6134 0.407937,0.67017 0.06439,1.83161 -0.02325,2.5616 -0.270933,2.25762 -0.662171,4.66547 -1.174088,6.87917 -0.207698,0.89719 -0.859817,2.7082 0.05168,3.43235 0.974144,0.77417 3.312543,0.44904 4.490682,0.48317 0.999843,0.0288 2.310731,0.28667 3.258716,-0.10645 1.451502,-0.60219 1.502317,-3.52705 1.785421,-4.8674 0.919376,-4.35731 1.514323,-8.82712 2.178161,-13.22917 0.18415,-1.21967 1.183113,-3.47627 0.290939,-4.60282 -0.45601,-0.57571 -1.8276,-0.6818 -3.2582,-0.64389 z m 30.25293,6.04046 h 4.49792 c -0.85586,5.82122 -1.10345,12.47226 -7.143749,15.34583 z m 72.85085,7.64914 c -1.99734,-0.0238 -3.90423,0.19308 -4.65656,1.15601 -0.72732,0.93107 -0.58594,2.51775 -0.82062,3.63027 -0.2331,1.10435 -1.24042,3.66017 -0.0532,4.49068 1.38399,0.96859 5.10851,0.27182 6.7629,0.27182 h 18.52083 c 1.83856,0 6.09537,0.78284 7.5582,-0.46096 1.72423,-1.46599 1.43763,-6.46723 1.43763,-8.53488 -4.48191,-0.83207 -9.47008,-0.26458 -14.02291,-0.26458 h -9.525 c -1.11584,0 -3.20388,-0.26452 -5.20124,-0.28836 z m -36.42568,0.0605 c -1.65049,-0.0257 -3.26181,0.12519 -4.35012,0.83095 -1.29778,0.84137 -2.73293,7.50476 -1.32137,8.38554 1.56573,0.97732 5.26809,0.27182 7.08174,0.27182 h 18.25625 c 1.74993,0 6.18662,0.79382 7.53701,-0.42427 1.53164,-1.38164 1.66361,-6.89893 1.45882,-8.83615 h -14.55208 -9.525 c -1.24493,0 -2.93473,-0.20219 -4.58525,-0.22789 z m -38.003364,5.51956 c 0.0021,0.001 0.0036,0.003 0.0062,0.005 -0.0021,0.002 -0.0027,0.003 -0.0041,0.005 0.0028,-0.002 0.007,-0.006 0.01137,-0.009 z" />
  </g>
</svg>
